<?xml version="1.0" encoding="UTF-8" standalone="no"?>
<svg
   xmlns:dc="http://purl.org/dc/elements/1.1/"
   xmlns:cc="http://creativecommons.org/ns#"
   xmlns:rdf="http://www.w3.org/1999/02/22-rdf-syntax-ns#"
   xmlns:svg="http://www.w3.org/2000/svg"
   xmlns="http://www.w3.org/2000/svg"
   xmlns:xlink="http://www.w3.org/1999/xlink"
   xmlns:sodipodi="http://sodipodi.sourceforge.net/DTD/sodipodi-0.dtd"
   xmlns:inkscape="http://www.inkscape.org/namespaces/inkscape"
   height="100%"
   version="1.1"
   viewBox="-400 -500 1200 1400"
   width="100%"
   id="svg2"
   inkscape:version="0.91 r13725"
   sodipodi:docname="ddcl_bb_splice_end_plate.svg">
  <sodipodi:namedview
     pagecolor="#ffffff"
     bordercolor="#666666"
     borderopacity="1"
     objecttolerance="10"
     gridtolerance="10"
     guidetolerance="10"
     inkscape:pageopacity="0"
     inkscape:pageshadow="2"
     inkscape:window-width="1545"
     inkscape:window-height="876"
     id="namedview185"
     showgrid="false"
     inkscape:zoom="0.953584"
     inkscape:cx="431.26395"
     inkscape:cy="636.34745"
     inkscape:window-x="55"
     inkscape:window-y="24"
     inkscape:window-maximized="1"
     inkscape:current-layer="svg2" />
  <metadata
     id="metadata187">
    <rdf:RDF>
      <cc:Work
         rdf:about="">
        <dc:format>image/svg+xml</dc:format>
        <dc:type
           rdf:resource="http://purl.org/dc/dcmitype/StillImage" />
        <dc:title></dc:title>
      </cc:Work>
    </rdf:RDF>
  </metadata>
  <defs
     id="defs4">
    <pattern
       patternTransform="matrix(0.77471909,0.70141398,-0.77471909,0.70141398,50.610874,-3.9245426)"
       id="pattern6169"
       xlink:href="#diagonalHatch"
       inkscape:collect="always" />
    <pattern
       patternTransform="matrix(0.70710678,0.70710678,-0.70710678,0.70710678,2,-2.8284271)"
       id="pattern6107"
       xlink:href="#diagonalHatch"
       inkscape:collect="always" />
    <pattern
       patternTransform="matrix(0.69934066,0.50061889,-0.69934066,0.50061889,3.8625449,31.871205)"
       id="pattern6105"
       xlink:href="#diagonalHatch"
       inkscape:collect="always" />
    <pattern
       patternTransform="matrix(0.70710678,0.70710678,-0.70710678,0.70710678,100.80345,-29.573568)"
       id="pattern6094"
       xlink:href="#diagonalHatch-6-3-4"
       inkscape:collect="always" />
    <pattern
       patternTransform="matrix(0.60287029,0.7080705,-0.60287029,0.7080705,106.81719,-30.267445)"
       id="pattern6083"
       xlink:href="#diagonalHatch-6-3-4"
       inkscape:collect="always" />
    <pattern
       patternTransform="matrix(0.43148888,0.70752686,-0.43148888,0.70752686,44.363809,-1.011109)"
       id="pattern5177"
       xlink:href="#diagonalHatch"
       inkscape:collect="always" />
    <pattern
       patternTransform="matrix(0.46187231,0.7074749,-0.46187231,0.7074749,47.397327,0.86527909)"
       id="pattern5175"
       xlink:href="#diagonalHatch"
       inkscape:collect="always" />
    <pattern
       width="6"
       patternUnits="userSpaceOnUse"
       patternTransform="rotate(45 2 2)"
       id="diagonalHatch"
       height="6">
      <path
         id="path7"
         stroke-width="2.5"
         stroke="#000000"
         d="M 0,1 l 6,0" />
    </pattern>
    <marker
       refY="3"
       refX="8"
       orient="auto"
       markerWidth="30"
       markerHeight="30"
       id="id1">
      <path
         id="path10"
         fill="black"
         d=" M0,0 L3,3 L0,6 L8,3 L0,0" />
    </marker>
    <marker
       refY="3"
       refX="0"
       orient="auto"
       markerWidth="30"
       markerHeight="20"
       id="id2">
      <path
         id="path13"
         fill="black"
         d=" M0,3 L8,6 L5,3 L8,0 L0,3" />
    </marker>
    <marker
       refY="3"
       refX="8"
       orient="auto"
       markerWidth="30"
       markerHeight="30"
       id="id3">
      <path
         id="path16"
         fill="black"
         d=" M0,0 L3,3 L0,6 L8,3 L0,0" />
    </marker>
    <marker
       refY="3"
       refX="0"
       orient="auto"
       markerWidth="30"
       markerHeight="20"
       id="id4">
      <path
         id="path19"
         fill="black"
         d=" M0,3 L8,6 L5,3 L8,0 L0,3" />
    </marker>
    <marker
       refY="3"
       refX="8"
       orient="auto"
       markerWidth="30"
       markerHeight="30"
       id="id5">
      <path
         id="path22"
         fill="black"
         d=" M0,0 L3,3 L0,6 L8,3 L0,0" />
    </marker>
    <marker
       refY="3"
       refX="0"
       orient="auto"
       markerWidth="30"
       markerHeight="20"
       id="id6">
      <path
         id="path25"
         fill="black"
         d=" M0,3 L8,6 L5,3 L8,0 L0,3" />
    </marker>
    <marker
       refY="3"
       refX="0"
       orient="auto"
       markerWidth="30"
       markerHeight="20"
       id="id7">
      <path
         id="path28"
         fill="black"
         d=" M0,3 L8,6 L5,3 L8,0 L0,3" />
    </marker>
    <marker
       refY="3"
       refX="0"
       orient="auto"
       markerWidth="30"
       markerHeight="20"
       id="id8">
      <path
         id="path31"
         fill="black"
         d=" M0,3 L8,6 L5,3 L8,0 L0,3" />
    </marker>
    <marker
       refY="3"
       refX="0"
       orient="auto"
       markerWidth="30"
       markerHeight="20"
       id="id9">
      <path
         id="path34"
         fill="black"
         d=" M0,3 L8,6 L5,3 L8,0 L0,3" />
    </marker>
    <marker
       refY="7.5"
       refX="45"
       orient="auto"
       markerWidth="15"
       markerHeight="15"
       id="id10">
      <path
         id="path37"
         stroke="black"
         fill="none"
         d="M 0 7.5 L 8 0 L 8 15 z" />
    </marker>
    <marker
       refY="3"
       refX="0"
       orient="auto"
       markerWidth="30"
       markerHeight="20"
       id="id11">
      <path
         id="path40"
         fill="black"
         d=" M0,3 L8,6 L5,3 L8,0 L0,3" />
    </marker>
    <marker
       refY="7.5"
       refX="45"
       orient="auto"
       markerWidth="15"
       markerHeight="15"
       id="id12">
      <path
         id="path43"
         stroke="black"
         fill="none"
         d="M 0 7.5 L 8 0 L 8 15 z" />
    </marker>
    <pattern
       width="6"
       patternUnits="userSpaceOnUse"
       patternTransform="rotate(45 2 2)"
       id="diagonalHatch-6"
       height="6">
      <path
         id="path7-4"
         stroke-width="2.5"
         stroke="#000000"
         d="M 0,1 l 6,0" />
    </pattern>
    <pattern
       width="6"
       patternUnits="userSpaceOnUse"
       patternTransform="rotate(45 2 2)"
       id="diagonalHatch-6-3"
       height="6">
      <path
         id="path7-4-8"
         stroke-width="2.5"
         stroke="#000000"
         d="M 0,1 l 6,0" />
    </pattern>
    <pattern
       width="6"
       patternUnits="userSpaceOnUse"
       patternTransform="rotate(45 2 2)"
       id="diagonalHatch-6-3-4"
       height="6">
      <path
         id="path7-4-8-8"
         stroke-width="2.5"
         stroke="#000000"
         d="M 0,1 l 6,0" />
    </pattern>
    <pattern
       width="6"
       patternUnits="userSpaceOnUse"
       patternTransform="rotate(45 2 2)"
       id="diagonalHatch-6-3-9"
       height="6">
      <path
         id="path7-4-8-7"
         stroke-width="2.5"
         stroke="#000000"
         d="M 0,1 l 6,0" />
    </pattern>
    <pattern
       id="pattern6091"
       patternTransform="translate(28.361947,98.914131)"
       height="5.3866994"
       width="143.22316"
       patternUnits="userSpaceOnUse">
      <rect
         height="142.74513"
         width="4.3712692"
         x="-4.6013861"
         y="0.24891761"
         id="rect49-3"
         style="fill:url(#pattern6094);fill-opacity:1;stroke:#ffffff;stroke-width:0.460379"
         transform="matrix(0.00387616,-0.99999249,0.99999249,0.00387616,0,0)" />
    </pattern>
    <pattern
       id="pattern6098"
       patternTransform="translate(29.356714,123.33047)"
       height="6.5805409"
       width="60.40733"
       patternUnits="userSpaceOnUse">
      <rect
         height="59.42421"
         width="5.5974202"
         x="-6.0889807"
         y="0.49156034"
         id="rect49-3-6-7"
         style="fill:url(#pattern6083);fill-opacity:1;stroke:#ffffff;stroke-width:0.98312068;stroke-miterlimit:5;stroke-dasharray:none"
         transform="matrix(0,-1,1,0,0,0)" />
    </pattern>
    <pattern
       patternTransform="matrix(0.70710678,0.70710678,-0.70710678,0.70710678,83.293918,-2.7951463)"
       id="pattern6107-6"
       xlink:href="#diagonalHatch-4"
       inkscape:collect="always" />
    <pattern
       width="6"
       patternUnits="userSpaceOnUse"
       patternTransform="rotate(45 2 2)"
       id="diagonalHatch-4"
       height="6">
      <path
         id="path7-3"
         stroke-width="2.5"
         stroke="#000000"
         d="M 0,1 l 6,0" />
    </pattern>
    <pattern
       patternTransform="matrix(0.70710678,0.70710678,-0.70710678,0.70710678,2.830269,359.44977)"
       id="pattern6107-3"
       xlink:href="#diagonalHatch-0"
       inkscape:collect="always" />
    <pattern
       width="6"
       patternUnits="userSpaceOnUse"
       patternTransform="rotate(45 2 2)"
       id="diagonalHatch-0"
       height="6">
      <path
         id="path7-9"
         stroke-width="2.5"
         stroke="#000000"
         d="M 0,1 l 6,0" />
    </pattern>
    <pattern
       patternTransform="matrix(0.71324449,0.67008625,-0.71324449,0.67008625,83.505625,366.27737)"
       id="pattern6107-5"
       xlink:href="#diagonalHatch-40"
       inkscape:collect="always" />
    <pattern
       width="6"
       patternUnits="userSpaceOnUse"
       patternTransform="rotate(45 2 2)"
       id="diagonalHatch-40"
       height="6">
      <path
         id="path7-5"
         stroke-width="2.5"
         stroke="#000000"
         d="M 0,1 l 6,0" />
    </pattern>
  </defs>
  <polyline
     style="fill:none;stroke:#0000ff;stroke-width:2.5"
     transform="translate(12,0)"
     id="polyline45"
     points="19.2,106.7 159.2,106.7 159.2,122.7 93.65,122.7 93.65,490.7 159.2,490.7 159.2,506.7 19.2,506.7 19.2,490.7 84.75,490.7 84.75,122.7 19.2,122.7 19.2,106.7" />
  <polyline
     style="fill:none;stroke:#0000ff;stroke-width:2.5"
     transform="matrix(1.132114,0,0,0.99973969,0.07983746,0.07983746)"
     id="polyline47"
     points="0,0 178.4,0.0 178.4,613.4 0.0,613.4 0,0" />
  <rect
     style="fill:url(#pattern5177);stroke:#ffffff;stroke-width:0.78139615"
     id="rect49"
     y="122.5907"
     x="89.977562"
     width="4.8817396"
     height="368.2186" />
  <rect
     style="fill:url(#pattern5175);stroke:#ffffff;stroke-width:0.80840963"
     id="rect51"
     y="124.45802"
     x="107.26183"
     width="5.2254887"
     height="368.19159" />
  <g
     transform="translate(-6,0)"
     id="g5187">
    <g
       id="g5179">
      <circle
         style="fill:none;stroke:#0000ff;stroke-width:1.5"
         id="circle53"
         r="12"
         cy="62.5"
         cx="58.200001" />
    </g>
    <line
       x1="42.200001"
       x2="74.199997"
       y1="62.5"
       y2="62.5"
       id="line55"
       style="stroke:#ff0000;stroke-width:1;stroke-linecap:square" />
    <line
       x1="58.200001"
       x2="58.200001"
       y1="46.5"
       y2="78.5"
       id="line57"
       style="stroke:#ff0000;stroke-width:1;stroke-linecap:square" />
  </g>
  <g
     transform="translate(12,0)"
     id="g5182">
    <circle
       style="fill:none;stroke:#0000ff;stroke-width:1.5"
       cx="134.2"
       cy="62.5"
       r="12"
       id="circle59" />
    <line
       style="stroke:#ff0000;stroke-width:1;stroke-linecap:square"
       x1="118.2"
       x2="150.2"
       y1="62.5"
       y2="62.5"
       id="line61" />
    <line
       style="stroke:#ff0000;stroke-width:1;stroke-linecap:square"
       x1="134.2"
       x2="134.2"
       y1="46.5"
       y2="78.5"
       id="line63" />
  </g>
  <g
     transform="translate(12,0)"
     id="g5196">
    <g
       id="g5193">
      <circle
         style="fill:none;stroke:#0000ff;stroke-width:1.5"
         id="circle71"
         r="12"
         cy="173.2"
         cx="134.2" />
    </g>
    <line
       style="stroke:#ff0000;stroke-width:1;stroke-linecap:square"
       x1="118.2"
       x2="150.2"
       y1="173.2"
       y2="173.2"
       id="line73" />
    <line
       style="stroke:#ff0000;stroke-width:1;stroke-linecap:square"
       x1="134.2"
       x2="134.2"
       y1="157.2"
       y2="189.2"
       id="line75" />
  </g>
  <g
     transform="translate(8,0)"
     id="g5211">
    <circle
       style="fill:none;stroke:#0000ff;stroke-width:1.5"
       cx="44.200001"
       cy="173.2"
       r="12"
       id="circle65" />
    <line
       style="stroke:#ff0000;stroke-width:1;stroke-linecap:square"
       x1="28.200001"
       x2="60.200001"
       y1="173.2"
       y2="173.2"
       id="line67" />
    <line
       style="stroke:#ff0000;stroke-width:1;stroke-linecap:square"
       x1="44.200001"
       x2="44.200001"
       y1="157.2"
       y2="189.2"
       id="line69" />
    <circle
       style="fill:none;stroke:#0000ff;stroke-width:1.5"
       cx="44.200001"
       cy="233.2"
       r="12"
       id="circle77" />
    <line
       style="stroke:#ff0000;stroke-width:1;stroke-linecap:square"
       x1="28.200001"
       x2="60.200001"
       y1="233.2"
       y2="233.2"
       id="line79" />
    <line
       style="stroke:#ff0000;stroke-width:1;stroke-linecap:square"
       x1="44.200001"
       x2="44.200001"
       y1="217.2"
       y2="249.2"
       id="line81" />
  </g>
  <g
     transform="translate(12,0)"
     id="g5206">
    <circle
       style="fill:none;stroke:#0000ff;stroke-width:1.5"
       cx="134.2"
       cy="233.2"
       r="12"
       id="circle83" />
    <line
       style="stroke:#ff0000;stroke-width:1;stroke-linecap:square"
       x1="118.2"
       x2="150.2"
       y1="233.2"
       y2="233.2"
       id="line85" />
    <line
       style="stroke:#ff0000;stroke-width:1;stroke-linecap:square"
       x1="134.2"
       x2="134.2"
       y1="217.2"
       y2="249.2"
       id="line87" />
  </g>
  <g
     transform="translate(8,0)"
     id="g5235">
    <circle
       style="fill:none;stroke:#0000ff;stroke-width:1.5"
       cx="44.200001"
       cy="550.90002"
       r="12"
       id="circle89" />
    <line
       style="stroke:#ff0000;stroke-width:1;stroke-linecap:square"
       x1="28.200001"
       x2="60.200001"
       y1="550.90002"
       y2="550.90002"
       id="line91" />
    <line
       style="stroke:#ff0000;stroke-width:1;stroke-linecap:square"
       x1="44.200001"
       x2="44.200001"
       y1="534.90002"
       y2="566.90002"
       id="line93" />
  </g>
  <g
     transform="translate(12,0)"
     id="g5240">
    <circle
       style="fill:none;stroke:#0000ff;stroke-width:1.5"
       cx="134.2"
       cy="550.90002"
       r="12"
       id="circle95" />
    <line
       style="stroke:#ff0000;stroke-width:1;stroke-linecap:square"
       x1="118.2"
       x2="150.2"
       y1="550.90002"
       y2="550.90002"
       id="line97" />
    <line
       style="stroke:#ff0000;stroke-width:1;stroke-linecap:square"
       x1="134.2"
       x2="134.2"
       y1="534.90002"
       y2="566.90002"
       id="line99" />
  </g>
  <g
     transform="translate(8,0)"
     id="g5219">
    <circle
       style="fill:none;stroke:#0000ff;stroke-width:1.5"
       cx="44.200001"
       cy="440.20001"
       r="12"
       id="circle101" />
    <line
       style="stroke:#ff0000;stroke-width:1;stroke-linecap:square"
       x1="28.200001"
       x2="60.200001"
       y1="440.20001"
       y2="440.20001"
       id="line103" />
    <line
       style="stroke:#ff0000;stroke-width:1;stroke-linecap:square"
       x1="44.200001"
       x2="44.200001"
       y1="424.20001"
       y2="456.20001"
       id="line105" />
    <circle
       style="fill:none;stroke:#0000ff;stroke-width:1.5"
       cx="44.200001"
       cy="380.20001"
       r="12"
       id="circle113" />
    <line
       style="stroke:#ff0000;stroke-width:1;stroke-linecap:square"
       x1="28.200001"
       x2="60.200001"
       y1="380.20001"
       y2="380.20001"
       id="line115" />
    <line
       style="stroke:#ff0000;stroke-width:1;stroke-linecap:square"
       x1="44.200001"
       x2="44.200001"
       y1="364.20001"
       y2="396.20001"
       id="line117" />
  </g>
  <g
     transform="translate(12,0)"
     id="g5227">
    <circle
       style="fill:none;stroke:#0000ff;stroke-width:1.5"
       cx="134.2"
       cy="440.20001"
       r="12"
       id="circle107" />
    <line
       style="stroke:#ff0000;stroke-width:1;stroke-linecap:square"
       x1="118.2"
       x2="150.2"
       y1="440.20001"
       y2="440.20001"
       id="line109" />
    <line
       style="stroke:#ff0000;stroke-width:1;stroke-linecap:square"
       x1="134.2"
       x2="134.2"
       y1="424.20001"
       y2="456.20001"
       id="line111" />
    <circle
       style="fill:none;stroke:#0000ff;stroke-width:1.5"
       cx="134.2"
       cy="380.20001"
       r="12"
       id="circle119" />
    <line
       style="stroke:#ff0000;stroke-width:1;stroke-linecap:square"
       x1="118.2"
       x2="150.2"
       y1="380.20001"
       y2="380.20001"
       id="line121" />
    <line
       style="stroke:#ff0000;stroke-width:1;stroke-linecap:square"
       x1="134.2"
       x2="134.2"
       y1="364.20001"
       y2="396.20001"
       id="line123" />
  </g>
  <line
     style="stroke:#d8d8d8;stroke-width:2.28043914;stroke-linecap:square;stroke-opacity:0.7"
     id="line127"
     y2="-97.038971"
     y1="61.053288"
     x2="52.200001"
     x1="52.200001" />
  <line
     style="stroke:#d8d8d8;stroke-width:2.29901624;stroke-linecap:square;stroke-opacity:0.7"
     id="line139"
     y2="-101.4781"
     y1="59.200382"
     x2="145.94682"
     x1="145.94682" />
  <line
     style="stroke:#000000;stroke-width:2.0600729;stroke-linecap:square;stroke-miterlimit:4;stroke-dasharray:none;marker-start:url(#id6);marker-end:url(#id5)"
     id="line149"
     y2="-69.488571"
     y1="-69.488571"
     x2="143.83163"
     x1="53.268356" />
  <text
     id="text161"
     y="-17.0"
     x="251.667513459"
     font-size="28"
     font-family="sans-serif"
     fill="black" />
  <text
     id="text167"
     y="89.7"
     x="-566.467513459"
     font-size="28"
     font-family="sans-serif"
     fill="black" />
  <text
     id="text171"
     y="305.7"
     x="179.739961631"
     font-size="28"
     font-family="sans-serif"
     fill="black" />
  <text
     id="text179"
     y="89.7"
     x="242.467513459"
     font-size="28"
     font-family="sans-serif"
     fill="black" />
  <rect
     id="rect6096"
     y="102.48714"
     x="29.934959"
     height="3.8136861"
     width="141.65015"
     style="fill:url(#pattern6105);fill-opacity:1;stroke:none" />
  <rect
     transform="matrix(-0.00779921,-0.99996959,0.99999168,-0.00407985,0,0)"
     style="fill:url(#pattern6169);fill-opacity:1;stroke:#ffffff;stroke-width:0.57700914"
     id="rect49-3-6"
     y="26.969082"
     x="-515.58319"
     width="6.9851236"
     height="140.32405" />
  <rect
     id="rect6101"
     y="122.90348"
     x="29.356714"
     height="5.0075283"
     width="60.40733"
     style="fill:url(#pattern6107);fill-opacity:1;stroke:none" />
  <rect
     id="rect6101-0"
     y="122.93677"
     x="110.65063"
     height="5.0075283"
     width="60.40733"
     style="fill:url(#pattern6107-6);fill-opacity:1;stroke:none" />
  <rect
     id="rect6101-2"
     y="485.18167"
     x="30.186981"
     height="5.0075283"
     width="60.40733"
     style="fill:url(#pattern6107-3);fill-opacity:1;stroke:none" />
  <rect
     id="rect6101-9"
     y="485.42657"
     x="111.09979"
     height="4.7453594"
     width="60.931667"
     style="fill:url(#pattern6107-5);fill-opacity:1;stroke:none" />
  <g
     id="g4518"
     transform="matrix(4.694996,0,0,5.3274523,-105.20356,-172.68636)"
     style="fill-rule:nonzero">
    <g
       word-spacing="normal"
       letter-spacing="normal"
       font-size-adjust="none"
       font-stretch="normal"
       font-weight="normal"
       font-variant="normal"
       font-style="normal"
       stroke-miterlimit="10.433"
       xml:space="preserve"
       transform="matrix(0.14285714,0,0,-0.14285714,-25,75)"
       id="content"
       style="font-style:normal;font-variant:normal;font-weight:normal;font-stretch:normal;letter-spacing:normal;word-spacing:normal;text-anchor:start;fill:none;fill-opacity:1;fill-rule:nonzero;stroke:#000000;stroke-linecap:butt;stroke-linejoin:miter;stroke-miterlimit:10.43299961;stroke-dasharray:none;stroke-dashoffset:0;stroke-opacity:1"><path
         id="path4521"
         d="m 479.46,424.78 0.01,0.06 0.01,0.05 0.01,0.05 0.02,0.06 0.02,0.1 0.01,0.06 0.02,0.05 0.01,0.05 0.01,0.06 0.01,0.05 0.01,0.06 0,0.06 0.01,0.06 0,0.03 0,0.03 0,0.03 0,0.04 c 0,0.84 -0.59,1.34 -1.44,1.34 -0.5,0 -1.85,-0.35 -2.05,-2.14 -0.89,1.84 -2.64,3.14 -4.63,3.14 l 0.05,-1.1 c 3.29,0 3.99,-4.03 3.99,-4.28 0,-0.25 -0.1,-0.55 -0.15,-0.75 l -2.4,-9.51 c -0.29,-1.3 -1.44,-2.54 -2.53,-3.49 -1.05,-0.9 -2.59,-1.79 -4.04,-1.79 -2.49,0 -3.24,2.59 -3.24,4.58 0,2.39 1.45,8.27 2.79,10.81 1.35,2.44 3.49,4.43 5.58,4.43 l -0.05,1.1 c -5.68,0 -11.85,-6.98 -11.85,-14.15 0,-4.93 3.04,-7.87 6.62,-7.87 2.94,0 5.28,2.34 5.78,2.89 l 0.05,-0.05 c -1.05,-4.43 -1.64,-6.48 -1.64,-6.57 -0.2,-0.45 -1.9,-5.39 -7.18,-5.39 -0.94,0 -2.59,0.05 -3.98,0.5 1.49,0.45 2.04,1.74 2.04,2.59 0,0.8 -0.55,1.74 -1.89,1.74 -1.1,0 -2.69,-0.89 -2.69,-2.88 0,-2.04 1.84,-3.04 6.62,-3.04 6.23,0 9.81,3.88 10.56,6.87 z"
         inkscape:connector-curvature="0"
         style="fill:#000000;stroke-width:0;fill-rule:nonzero" /><path
         id="path4523"
         d="m 490.68,421.18 0,0.04 0,0.04 0,0.04 0,0.04 0,0.04 0,0.04 0,0.03 0,0.04 -0.01,0.03 0,0.03 0,0.04 0,0.03 -0.01,0.02 0,0.03 0,0.03 -0.01,0.03 0,0.02 0,0.02 -0.02,0.05 -0.01,0.04 -0.01,0.04 -0.02,0.03 -0.02,0.03 -0.02,0.03 -0.03,0.03 -0.02,0.02 -0.03,0.02 -0.04,0.02 -0.03,0.01 -0.04,0.01 -0.05,0.02 -0.05,0 -0.02,0.01 -0.03,0 -0.03,0.01 -0.02,0 -0.03,0 -0.03,0 -0.04,0 -0.03,0.01 -0.03,0 -0.04,0 -0.03,0 -0.04,0 -0.04,0 -0.04,0 -0.04,0 -0.04,0 -0.05,0 -0.04,0 c -2.24,-2.19 -5.41,-2.23 -6.84,-2.23 l 0,-1.25 c 0.84,0 3.14,0 5.06,0.97 l 0,-17.78 c 0,-1.15 0,-1.61 -3.49,-1.61 l -1.33,0 0,-1.25 12.45,0 0,1.25 -1.32,0 c -3.49,0 -3.49,0.46 -3.49,1.61 z"
         inkscape:connector-curvature="0"
         style="fill:#000000;stroke-width:0;fill-rule:nonzero" /></g>  </g>
</svg>
