<?xml version="1.0" encoding="UTF-8" standalone="no"?>
<svg
   xmlns:dc="http://purl.org/dc/elements/1.1/"
   xmlns:cc="http://creativecommons.org/ns#"
   xmlns:rdf="http://www.w3.org/1999/02/22-rdf-syntax-ns#"
   xmlns:svg="http://www.w3.org/2000/svg"
   xmlns="http://www.w3.org/2000/svg"
   xmlns:xlink="http://www.w3.org/1999/xlink"
   xmlns:sodipodi="http://sodipodi.sourceforge.net/DTD/sodipodi-0.dtd"
   xmlns:inkscape="http://www.inkscape.org/namespaces/inkscape"
   height="100%"
   version="1.1"
   viewBox="-100 -100 492.37887 872.68832"
   width="100%"
   id="svg2"
   inkscape:version="0.48.4 r9939"
   sodipodi:docname="Fig3.svg">
  <sodipodi:namedview
     pagecolor="#ffffff"
     bordercolor="#666666"
     borderopacity="1"
     objecttolerance="10"
     gridtolerance="10"
     guidetolerance="10"
     inkscape:pageopacity="0"
     inkscape:pageshadow="2"
     inkscape:window-width="1301"
     inkscape:window-height="744"
     id="namedview169"
     showgrid="false"
     inkscape:zoom="0.78666669"
     inkscape:cx="340.65177"
     inkscape:cy="239.05681"
     inkscape:window-x="65"
     inkscape:window-y="24"
     inkscape:window-maximized="1"
     inkscape:current-layer="svg2"
     fit-margin-top="0"
     fit-margin-left="0"
     fit-margin-right="0"
     fit-margin-bottom="0" />
  <metadata
     id="metadata171">
    <rdf:RDF>
      <cc:Work
         rdf:about="">
        <dc:format>image/svg+xml</dc:format>
        <dc:type
           rdf:resource="http://purl.org/dc/dcmitype/StillImage" />
        <dc:title />
      </cc:Work>
    </rdf:RDF>
  </metadata>
  <defs
     id="defs4">
    <pattern
       inkscape:collect="always"
       xlink:href="#diagonalHatch"
       id="pattern3150"
       patternTransform="matrix(0.70710678,0.70710678,-0.70710678,0.70710678,-96.75,-97.57843)" />
    <pattern
       inkscape:collect="always"
       xlink:href="#diagonalHatch"
       id="pattern3148"
       patternTransform="matrix(0.70710678,0.70710678,-0.70710678,0.70710678,-96.75,-95.57843)" />
    <pattern
       height="6"
       id="diagonalHatch"
       patternTransform="rotate(45 2 2)"
       patternUnits="userSpaceOnUse"
       width="6">
      <path
         d="M -1,2 l 6,0"
         stroke="#000000"
         stroke-width="0.7"
         id="path7" />
    </pattern>
    <marker
       id="id235"
       markerHeight="30"
       markerWidth="30"
       orient="auto"
       refX="8"
       refY="3">
      <path
         d="M 0,0 3,3 0,6 8,3 0,0"
         id="path10"
         inkscape:connector-curvature="0"
         style="fill:#000000" />
    </marker>
    <marker
       id="id236"
       markerHeight="20"
       markerWidth="30"
       orient="auto"
       refX="0"
       refY="3">
      <path
         d="M 0,3 8,6 5,3 8,0 0,3"
         id="path13"
         inkscape:connector-curvature="0"
         style="fill:#000000" />
    </marker>
    <marker
       id="id237"
       markerHeight="30"
       markerWidth="30"
       orient="auto"
       refX="8"
       refY="3">
      <path
         d="M 0,0 3,3 0,6 8,3 0,0"
         id="path16"
         inkscape:connector-curvature="0"
         style="fill:#000000" />
    </marker>
    <marker
       id="id238"
       markerHeight="20"
       markerWidth="30"
       orient="auto"
       refX="0"
       refY="3">
      <path
         d="M 0,3 8,6 5,3 8,0 0,3"
         id="path19"
         inkscape:connector-curvature="0"
         style="fill:#000000" />
    </marker>
    <marker
       id="id239"
       markerHeight="30"
       markerWidth="30"
       orient="auto"
       refX="8"
       refY="3">
      <path
         d="M 0,0 3,3 0,6 8,3 0,0"
         id="path22"
         inkscape:connector-curvature="0"
         style="fill:#000000" />
    </marker>
    <marker
       id="id240"
       markerHeight="20"
       markerWidth="30"
       orient="auto"
       refX="0"
       refY="3">
      <path
         d="M 0,3 8,6 5,3 8,0 0,3"
         id="path25"
         inkscape:connector-curvature="0"
         style="fill:#000000" />
    </marker>
    <marker
       id="id241"
       markerHeight="20"
       markerWidth="30"
       orient="auto"
       refX="0"
       refY="3">
      <path
         d="M 0,3 8,6 5,3 8,0 0,3"
         id="path28"
         inkscape:connector-curvature="0"
         style="fill:#000000" />
    </marker>
    <marker
       id="id242"
       markerHeight="20"
       markerWidth="30"
       orient="auto"
       refX="0"
       refY="3">
      <path
         d="M 0,3 8,6 5,3 8,0 0,3"
         id="path31"
         inkscape:connector-curvature="0"
         style="fill:#000000" />
    </marker>
    <marker
       id="id243"
       markerHeight="20"
       markerWidth="30"
       orient="auto"
       refX="0"
       refY="3">
      <path
         d="M 0,3 8,6 5,3 8,0 0,3"
         id="path34"
         inkscape:connector-curvature="0"
         style="fill:#000000" />
    </marker>
    <marker
       id="id244"
       markerHeight="20"
       markerWidth="30"
       orient="auto"
       refX="0"
       refY="3">
      <path
         d="M 0,3 8,6 5,3 8,0 0,3"
         id="path37"
         inkscape:connector-curvature="0"
         style="fill:#000000" />
    </marker>
    <marker
       id="id245"
       markerHeight="20"
       markerWidth="30"
       orient="auto"
       refX="0"
       refY="3">
      <path
         d="M 0,3 8,6 5,3 8,0 0,3"
         id="path40"
         inkscape:connector-curvature="0"
         style="fill:#000000" />
    </marker>
    <marker
       id="id246"
       markerHeight="15"
       markerWidth="15"
       orient="auto"
       refX="45"
       refY="7.5">
      <path
         d="M 0,0 8,7.5 0,15 z"
         id="path43"
         inkscape:connector-curvature="0"
         style="fill:none;stroke:#000000" />
    </marker>
    <marker
       id="id242-0"
       markerHeight="20"
       markerWidth="30"
       orient="auto"
       refX="0"
       refY="3">
      <path
         style="fill:#000000"
         inkscape:connector-curvature="0"
         d="M 0,3 8,6 5,3 8,0 0,3"
         id="path31-0" />
    </marker>
    <marker
       id="id242-8"
       markerHeight="20"
       markerWidth="30"
       orient="auto"
       refX="0"
       refY="3">
      <path
         d="M 0,3 8,6 5,3 8,0 0,3"
         id="path31-05"
         inkscape:connector-curvature="0"
         style="fill:#000000" />
    </marker>
  </defs>
  <rect
     height="800"
     width="250"
     x="-98.75"
     y="-98.75"
     id="rect45"
     style="fill:none;stroke:#0000ff;stroke-width:2.5" />
  <polyline
     points="55,250 195,250 195.0,263.1 128.85,263.1 128.85,536.9 195.0,536.9 195,550 55,550 55.0,536.9 121.15,536.9 121.15,263.1 55.0,263.1 55,250"
     id="polyline47"
     style="fill:none;stroke:#0000ff;stroke-width:2.5"
     transform="translate(-98.75,-98.750003)" />
  <rect
     height="160"
     width="10"
     x="9.9000015"
     y="196.45001"
     id="rect49"
     style="fill:url(#pattern3150);stroke:#ffffff;stroke-width:2.5" />
  <rect
     height="180"
     width="154"
     x="-50.75"
     y="194.45001"
     id="rect51"
     style="fill:none;stroke:#0000ff;stroke-width:2.5" />
  <rect
     height="160"
     width="10"
     x="32.600006"
     y="198.45001"
     id="rect53"
     style="fill:url(#pattern3148);stroke:#ffffff;stroke-width:2.5" />
  <circle
     cx="75"
     cy="323.20001"
     r="8"
     id="circle55"
     sodipodi:cx="75"
     sodipodi:cy="323.20001"
     sodipodi:rx="8"
     sodipodi:ry="8"
     style="fill:none;stroke:#0000ff;stroke-width:1.5"
     transform="translate(-98.75,-98.750003)" />
  <circle
     cx="175"
     cy="323.20001"
     r="8"
     id="circle57"
     sodipodi:cx="175"
     sodipodi:cy="323.20001"
     sodipodi:rx="8"
     sodipodi:ry="8"
     style="fill:none;stroke:#0000ff;stroke-width:1.5"
     transform="translate(-98.75,-98.750003)" />
  <line
     x1="-10.75"
     x2="-36.75"
     y1="224.45001"
     y2="224.45001"
     id="line59"
     style="stroke:#000000;stroke-width:1;stroke-linecap:square" />
  <line
     x1="-23.75"
     x2="-23.75"
     y1="237.45001"
     y2="211.45001"
     id="line61"
     style="stroke:#000000;stroke-width:1;stroke-linecap:square" />
  <line
     x1="89.25"
     x2="63.25"
     y1="224.45001"
     y2="224.45001"
     id="line63"
     style="stroke:#000000;stroke-width:1;stroke-linecap:square" />
  <line
     x1="76.25"
     x2="76.25"
     y1="237.45001"
     y2="211.45001"
     id="line65"
     style="stroke:#000000;stroke-width:1;stroke-linecap:square" />
  <circle
     cx="75"
     cy="363.20001"
     r="8"
     id="circle67"
     sodipodi:cx="75"
     sodipodi:cy="363.20001"
     sodipodi:rx="8"
     sodipodi:ry="8"
     style="fill:none;stroke:#0000ff;stroke-width:1.5"
     transform="translate(-98.75,-98.750003)" />
  <circle
     cx="175"
     cy="363.20001"
     r="8"
     id="circle69"
     sodipodi:cx="175"
     sodipodi:cy="363.20001"
     sodipodi:rx="8"
     sodipodi:ry="8"
     style="fill:none;stroke:#0000ff;stroke-width:1.5"
     transform="translate(-98.75,-98.750003)" />
  <line
     x1="-10.75"
     x2="-36.75"
     y1="264.45001"
     y2="264.45001"
     id="line71"
     style="stroke:#000000;stroke-width:1;stroke-linecap:square" />
  <line
     x1="-23.75"
     x2="-23.75"
     y1="277.45001"
     y2="251.45001"
     id="line73"
     style="stroke:#000000;stroke-width:1;stroke-linecap:square" />
  <line
     x1="89.25"
     x2="63.25"
     y1="264.45001"
     y2="264.45001"
     id="line75"
     style="stroke:#000000;stroke-width:1;stroke-linecap:square" />
  <line
     x1="76.25"
     x2="76.25"
     y1="277.45001"
     y2="251.45001"
     id="line77"
     style="stroke:#000000;stroke-width:1;stroke-linecap:square" />
  <circle
     cx="75"
     cy="403.20001"
     r="8"
     id="circle79"
     sodipodi:cx="75"
     sodipodi:cy="403.20001"
     sodipodi:rx="8"
     sodipodi:ry="8"
     style="fill:none;stroke:#0000ff;stroke-width:1.5"
     transform="translate(-98.75,-98.750003)" />
  <circle
     cx="175"
     cy="403.20001"
     r="8"
     id="circle81"
     sodipodi:cx="175"
     sodipodi:cy="403.20001"
     sodipodi:rx="8"
     sodipodi:ry="8"
     style="fill:none;stroke:#0000ff;stroke-width:1.5"
     transform="translate(-98.75,-98.750003)" />
  <line
     x1="-10.75"
     x2="-36.75"
     y1="304.45001"
     y2="304.45001"
     id="line83"
     style="stroke:#000000;stroke-width:1;stroke-linecap:square" />
  <line
     x1="-23.75"
     x2="-23.75"
     y1="317.45001"
     y2="291.45001"
     id="line85"
     style="stroke:#000000;stroke-width:1;stroke-linecap:square" />
  <line
     x1="89.25"
     x2="63.25"
     y1="304.45001"
     y2="304.45001"
     id="line87"
     style="stroke:#000000;stroke-width:1;stroke-linecap:square" />
  <line
     x1="76.25"
     x2="76.25"
     y1="317.45001"
     y2="291.45001"
     id="line89"
     style="stroke:#000000;stroke-width:1;stroke-linecap:square" />
  <circle
     cx="75"
     cy="443.20001"
     r="8"
     id="circle91"
     sodipodi:cx="75"
     sodipodi:cy="443.20001"
     sodipodi:rx="8"
     sodipodi:ry="8"
     style="fill:none;stroke:#0000ff;stroke-width:1.5"
     transform="translate(-98.75,-98.750003)" />
  <circle
     cx="175"
     cy="443.20001"
     r="8"
     id="circle93"
     sodipodi:cx="175"
     sodipodi:cy="443.20001"
     sodipodi:rx="8"
     sodipodi:ry="8"
     style="fill:none;stroke:#0000ff;stroke-width:1.5"
     transform="translate(-98.75,-98.750003)" />
  <line
     x1="-10.75"
     x2="-36.75"
     y1="344.45001"
     y2="344.45001"
     id="line95"
     style="stroke:#000000;stroke-width:1;stroke-linecap:square" />
  <line
     x1="-23.75"
     x2="-23.75"
     y1="357.45001"
     y2="331.45001"
     id="line97"
     style="stroke:#000000;stroke-width:1;stroke-linecap:square" />
  <line
     x1="89.25"
     x2="63.25"
     y1="344.45001"
     y2="344.45001"
     id="line99"
     style="stroke:#000000;stroke-width:1;stroke-linecap:square" />
  <line
     x1="76.25"
     x2="76.25"
     y1="357.45001"
     y2="331.45001"
     id="line101"
     style="stroke:#000000;stroke-width:1;stroke-linecap:square" />
  <line
     x1="76.25"
     x2="76.25"
     y1="222.56638"
     y2="84.715485"
     id="line131"
     style="stroke:#d8d8d8;stroke-width:2.38080049;stroke-linecap:square;stroke-opacity:0.7" />
  <line
     x1="-24.25"
     x2="-24.25"
     y1="210.95001"
     y2="85.950012"
     id="line133"
     style="stroke:#d8d8d8;stroke-width:2.5;stroke-linecap:square;stroke-opacity:0.7" />
  <text
     font-size="28"
     x="192.3401"
     y="514.82593"
     id="text137"
     style="font-size:28px;fill:#000000;font-family:sans-serif">Beam</text>
  <text
     font-size="28"
     x="-167.35001"
     y="769.25"
     id="text139"
     style="font-size:28px;fill:#000000;font-family:sans-serif" />
  <polyline
     points="250,800 320.0,870.0 528.0,870.0"
     id="polyline141"
     style="fill:none;stroke:#000000;stroke-width:2.5;marker-start:url(#id242)"
     transform="matrix(0.72647535,0,0,1.0051948,-30.550655,-103.08764)" />
  <text
     font-size="28"
     x="226.04999"
     y="757.25"
     id="text143"
     style="font-size:28px;fill:#000000;font-family:sans-serif">Column</text>
  <text
     font-size="28"
     x="242.04999"
     y="789.25"
     id="text145"
     style="font-size:28px;fill:#000000;font-family:sans-serif" />
  <text
     font-size="28"
     x="248.75"
     y="552.45001"
     id="text151"
     style="font-size:28px;fill:#000000;font-family:sans-serif" />
  <text
     font-size="28"
     x="37.300003"
     y="-99.650002"
     id="text163"
     style="font-size:28px;fill:#000000;font-family:sans-serif" />
  <text
     style="font-size:28px;fill:#000000;font-family:sans-serif"
     font-size="28"
     x="188.88199"
     y="405.60767"
     id="text161-2">End Plate</text>
  <polyline
     style="fill:none;stroke:#000000;stroke-width:2.5;marker-start:url(#id242)"
     transform="matrix(0.78154111,0,0,1.0040768,-81.149098,-453.77524)"
     points="250,800 320.0,870.0 528.0,870.0"
     id="polyline141-1" />
  <line
     x1="74.011429"
     x2="-21.464752"
     y1="111.38686"
     y2="111.38686"
     id="line107-5"
     style="stroke:#000000;stroke-width:2.5;stroke-linecap:square;stroke-miterlimit:4;stroke-opacity:1;stroke-dasharray:none;marker-start:url(#id236);marker-end:url(#id235)" />
  <g
     id="g4648"
     transform="matrix(6.2714418,0,0,6.2714418,-241.78905,-11.766189)">
    <g
       word-spacing="normal"
       letter-spacing="normal"
       font-size-adjust="none"
       font-stretch="normal"
       font-weight="normal"
       font-variant="normal"
       font-style="normal"
       stroke-miterlimit="10.433"
       xml:space="preserve"
       transform="matrix(0.14285714,0,0,-0.14285714,-25,75)"
       id="content"
       style="font-style:normal;font-variant:normal;font-weight:normal;font-stretch:normal;letter-spacing:normal;word-spacing:normal;text-anchor:start;fill:none;stroke:#000000;stroke-linecap:butt;stroke-linejoin:miter;stroke-miterlimit:10.43299961;stroke-opacity:1;stroke-dasharray:none;stroke-dashoffset:0"><path
         id="path4651"
         d="m 478.99,424.98 0.01,0.06 0.01,0.05 0.01,0.05 0.01,0.06 0.02,0.1 0.01,0.05 0.02,0.06 0.01,0.05 0.01,0.06 0.01,0.05 0,0.06 0.01,0.06 0,0.06 0.01,0.03 0,0.03 0,0.03 0,0.03 c 0,0.86 -0.59,1.36 -1.44,1.36 -0.5,0 -1.84,-0.36 -2.05,-2.16 -0.89,1.85 -2.64,3.14 -4.62,3.14 l 0.05,-1.09 c 3.28,0 3.98,-4.03 3.98,-4.28 0,-0.25 -0.09,-0.55 -0.16,-0.75 l -2.39,-9.52 c -0.29,-1.29 -1.43,-2.53 -2.53,-3.48 -1.04,-0.89 -2.59,-1.8 -4.04,-1.8 -2.49,0 -3.24,2.6 -3.24,4.58 0,2.41 1.45,8.28 2.8,10.81 1.34,2.46 3.48,4.44 5.58,4.44 l -0.05,1.09 c -5.69,0 -11.86,-6.96 -11.86,-14.14 0,-4.93 3.03,-7.87 6.63,-7.87 2.93,0 5.28,2.34 5.78,2.89 l 0.04,-0.05 c -1.04,-4.43 -1.64,-6.48 -1.64,-6.58 -0.2,-0.45 -1.89,-5.39 -7.17,-5.39 -0.95,0 -2.59,0.07 -4,0.5 1.5,0.46 2.05,1.75 2.05,2.6 0,0.79 -0.55,1.75 -1.89,1.75 -1.1,0 -2.69,-0.91 -2.69,-2.89 0,-2.05 1.84,-3.05 6.62,-3.05 6.22,0 9.82,3.89 10.57,6.88 z"
         inkscape:connector-curvature="0"
         style="fill:#000000;stroke-width:0" /><path
         id="path4653"
         d="m 490.95,420.92 0,0.04 0,0.04 0,0.05 0,0.04 0,0.03 0,0.04 0,0.04 0,0.03 0,0.04 0,0.03 -0.01,0.03 0,0.03 0,0.03 0,0.03 -0.01,0.03 0,0.02 -0.01,0.03 0,0.02 -0.01,0.03 0,0.02 -0.01,0.04 -0.02,0.04 -0.02,0.03 -0.01,0.03 -0.03,0.03 -0.02,0.03 -0.03,0.02 -0.03,0.02 -0.03,0.02 -0.04,0.01 -0.04,0.01 -0.04,0.02 -0.03,0 -0.02,0 -0.03,0.01 -0.02,0 -0.03,0.01 -0.03,0 -0.03,0 -0.03,0 -0.03,0 -0.04,0.01 -0.03,0 -0.04,0 -0.03,0 -0.04,0 -0.04,0 -0.04,0 -0.04,0 -0.04,0 -0.05,0 -0.04,0 c -2.24,-2.2 -5.39,-2.23 -6.83,-2.23 v -1.25 c 0.84,0 3.14,0 5.04,0.97 v -17.77 c 0,-1.16 0,-1.61 -3.48,-1.61 h -1.31 v -1.25 c 0.62,0.03 4.9,0.14 6.2,0.14 1.08,0 5.47,-0.11 6.24,-0.14 v 1.25 h -1.33 c -3.49,0 -3.49,0.45 -3.49,1.61 z"
         inkscape:connector-curvature="0"
         style="fill:#000000;stroke-width:0" /></g>  </g>
  <polyline
     style="fill:none;stroke:#000000;stroke-width:2.5;marker-start:url(#id242)"
     transform="translate(-195.38374,-342.94574)"
     points="250,800 320.0,870.0 528.0,870.0"
     id="polyline141-1-0" />
</svg>
