<?xml version="1.0" encoding="UTF-8" standalone="no"?>
<svg
   xmlns:dc="http://purl.org/dc/elements/1.1/"
   xmlns:cc="http://creativecommons.org/ns#"
   xmlns:rdf="http://www.w3.org/1999/02/22-rdf-syntax-ns#"
   xmlns:svg="http://www.w3.org/2000/svg"
   xmlns="http://www.w3.org/2000/svg"
   xmlns:xlink="http://www.w3.org/1999/xlink"
   xmlns:sodipodi="http://sodipodi.sourceforge.net/DTD/sodipodi-0.dtd"
   xmlns:inkscape="http://www.inkscape.org/namespaces/inkscape"
   height="100%"
   version="1.1"
   viewBox="-100 -100 465.58033 872.65508"
   width="100%"
   id="svg2"
   inkscape:version="0.48.4 r9939"
   sodipodi:docname="Fig1.svg">
  <sodipodi:namedview
     pagecolor="#ffffff"
     bordercolor="#666666"
     borderopacity="1"
     objecttolerance="10"
     gridtolerance="10"
     guidetolerance="10"
     inkscape:pageopacity="0"
     inkscape:pageshadow="2"
     inkscape:window-width="1301"
     inkscape:window-height="744"
     id="namedview169"
     showgrid="false"
     inkscape:zoom="0.78666669"
     inkscape:cx="276.72523"
     inkscape:cy="251.71648"
     inkscape:window-x="65"
     inkscape:window-y="24"
     inkscape:window-maximized="1"
     inkscape:current-layer="svg2"
     fit-margin-top="0"
     fit-margin-left="0"
     fit-margin-right="0"
     fit-margin-bottom="0" />
  <metadata
     id="metadata171">
    <rdf:RDF>
      <cc:Work
         rdf:about="">
        <dc:format>image/svg+xml</dc:format>
        <dc:type
           rdf:resource="http://purl.org/dc/dcmitype/StillImage" />
        <dc:title />
      </cc:Work>
    </rdf:RDF>
  </metadata>
  <defs
     id="defs4">
    <pattern
       inkscape:collect="always"
       xlink:href="#diagonalHatch"
       id="pattern3150"
       patternTransform="matrix(0.70710678,0.70710678,-0.70710678,0.70710678,-96.75,-97.578438)" />
    <pattern
       inkscape:collect="always"
       xlink:href="#diagonalHatch"
       id="pattern3148"
       patternTransform="matrix(0.70710678,0.70710678,-0.70710678,0.70710678,-96.75,-95.578438)" />
    <pattern
       height="6"
       id="diagonalHatch"
       patternTransform="rotate(45 2 2)"
       patternUnits="userSpaceOnUse"
       width="6">
      <path
         d="M -1,2 l 6,0"
         stroke="#000000"
         stroke-width="0.7"
         id="path7" />
    </pattern>
    <marker
       id="id235"
       markerHeight="30"
       markerWidth="30"
       orient="auto"
       refX="8"
       refY="3">
      <path
         d="M 0,0 3,3 0,6 8,3 0,0"
         id="path10"
         inkscape:connector-curvature="0"
         style="fill:#000000" />
    </marker>
    <marker
       id="id236"
       markerHeight="20"
       markerWidth="30"
       orient="auto"
       refX="0"
       refY="3">
      <path
         d="M 0,3 8,6 5,3 8,0 0,3"
         id="path13"
         inkscape:connector-curvature="0"
         style="fill:#000000" />
    </marker>
    <marker
       id="id237"
       markerHeight="30"
       markerWidth="30"
       orient="auto"
       refX="8"
       refY="3">
      <path
         d="M 0,0 3,3 0,6 8,3 0,0"
         id="path16"
         inkscape:connector-curvature="0"
         style="fill:#000000" />
    </marker>
    <marker
       id="id238"
       markerHeight="20"
       markerWidth="30"
       orient="auto"
       refX="0"
       refY="3">
      <path
         d="M 0,3 8,6 5,3 8,0 0,3"
         id="path19"
         inkscape:connector-curvature="0"
         style="fill:#000000" />
    </marker>
    <marker
       id="id239"
       markerHeight="30"
       markerWidth="30"
       orient="auto"
       refX="8"
       refY="3">
      <path
         d="M 0,0 3,3 0,6 8,3 0,0"
         id="path22"
         inkscape:connector-curvature="0"
         style="fill:#000000" />
    </marker>
    <marker
       id="id240"
       markerHeight="20"
       markerWidth="30"
       orient="auto"
       refX="0"
       refY="3">
      <path
         d="M 0,3 8,6 5,3 8,0 0,3"
         id="path25"
         inkscape:connector-curvature="0"
         style="fill:#000000" />
    </marker>
    <marker
       id="id241"
       markerHeight="20"
       markerWidth="30"
       orient="auto"
       refX="0"
       refY="3">
      <path
         d="M 0,3 8,6 5,3 8,0 0,3"
         id="path28"
         inkscape:connector-curvature="0"
         style="fill:#000000" />
    </marker>
    <marker
       id="id242"
       markerHeight="20"
       markerWidth="30"
       orient="auto"
       refX="0"
       refY="3">
      <path
         d="M 0,3 8,6 5,3 8,0 0,3"
         id="path31"
         inkscape:connector-curvature="0"
         style="fill:#000000" />
    </marker>
    <marker
       id="id243"
       markerHeight="20"
       markerWidth="30"
       orient="auto"
       refX="0"
       refY="3">
      <path
         d="M 0,3 8,6 5,3 8,0 0,3"
         id="path34"
         inkscape:connector-curvature="0"
         style="fill:#000000" />
    </marker>
    <marker
       id="id244"
       markerHeight="20"
       markerWidth="30"
       orient="auto"
       refX="0"
       refY="3">
      <path
         d="M 0,3 8,6 5,3 8,0 0,3"
         id="path37"
         inkscape:connector-curvature="0"
         style="fill:#000000" />
    </marker>
    <marker
       id="id245"
       markerHeight="20"
       markerWidth="30"
       orient="auto"
       refX="0"
       refY="3">
      <path
         d="M 0,3 8,6 5,3 8,0 0,3"
         id="path40"
         inkscape:connector-curvature="0"
         style="fill:#000000" />
    </marker>
    <marker
       id="id246"
       markerHeight="15"
       markerWidth="15"
       orient="auto"
       refX="45"
       refY="7.5">
      <path
         d="M 0,0 8,7.5 0,15 z"
         id="path43"
         inkscape:connector-curvature="0"
         style="fill:none;stroke:#000000" />
    </marker>
    <marker
       id="id242-0"
       markerHeight="20"
       markerWidth="30"
       orient="auto"
       refX="0"
       refY="3">
      <path
         style="fill:#000000"
         inkscape:connector-curvature="0"
         d="M 0,3 8,6 5,3 8,0 0,3"
         id="path31-0" />
    </marker>
    <marker
       id="id242-6"
       markerHeight="20"
       markerWidth="30"
       orient="auto"
       refX="0"
       refY="3">
      <path
         d="M 0,3 8,6 5,3 8,0 0,3"
         id="path31-6"
         inkscape:connector-curvature="0"
         style="fill:#000000" />
    </marker>
  </defs>
  <rect
     height="800"
     width="250"
     x="-98.75"
     y="-98.750008"
     id="rect45"
     style="fill:none;stroke:#0000ff;stroke-width:2.5" />
  <polyline
     points="55,250 195,250 195.0,263.1 128.85,263.1 128.85,536.9 195.0,536.9 195,550 55,550 55.0,536.9 121.15,536.9 121.15,263.1 55.0,263.1 55,250"
     id="polyline47"
     style="fill:none;stroke:#0000ff;stroke-width:2.5"
     transform="translate(-98.75,-98.750011)" />
  <rect
     height="160"
     width="10"
     x="9.9000015"
     y="196.45"
     id="rect49"
     style="fill:url(#pattern3150);stroke:#ffffff;stroke-width:2.5" />
  <rect
     height="180"
     width="154"
     x="-50.75"
     y="194.45"
     id="rect51"
     style="fill:none;stroke:#0000ff;stroke-width:2.5" />
  <rect
     height="160"
     width="10"
     x="32.600006"
     y="198.45"
     id="rect53"
     style="fill:url(#pattern3148);stroke:#ffffff;stroke-width:2.5" />
  <circle
     cx="75"
     cy="323.20001"
     r="8"
     id="circle55"
     sodipodi:cx="75"
     sodipodi:cy="323.20001"
     sodipodi:rx="8"
     sodipodi:ry="8"
     style="fill:none;stroke:#0000ff;stroke-width:1.5"
     transform="translate(-98.75,-98.750011)" />
  <circle
     cx="175"
     cy="323.20001"
     r="8"
     id="circle57"
     sodipodi:cx="175"
     sodipodi:cy="323.20001"
     sodipodi:rx="8"
     sodipodi:ry="8"
     style="fill:none;stroke:#0000ff;stroke-width:1.5"
     transform="translate(-98.75,-98.750011)" />
  <line
     x1="-10.75"
     x2="-36.75"
     y1="224.45"
     y2="224.45"
     id="line59"
     style="stroke:#000000;stroke-width:1;stroke-linecap:square" />
  <line
     x1="-23.75"
     x2="-23.75"
     y1="237.45"
     y2="211.45"
     id="line61"
     style="stroke:#000000;stroke-width:1;stroke-linecap:square" />
  <line
     x1="89.25"
     x2="63.25"
     y1="224.45"
     y2="224.45"
     id="line63"
     style="stroke:#000000;stroke-width:1;stroke-linecap:square" />
  <line
     x1="76.25"
     x2="76.25"
     y1="237.45"
     y2="211.45"
     id="line65"
     style="stroke:#000000;stroke-width:1;stroke-linecap:square" />
  <circle
     cx="75"
     cy="363.20001"
     r="8"
     id="circle67"
     sodipodi:cx="75"
     sodipodi:cy="363.20001"
     sodipodi:rx="8"
     sodipodi:ry="8"
     style="fill:none;stroke:#0000ff;stroke-width:1.5"
     transform="translate(-98.75,-98.750011)" />
  <circle
     cx="175"
     cy="363.20001"
     r="8"
     id="circle69"
     sodipodi:cx="175"
     sodipodi:cy="363.20001"
     sodipodi:rx="8"
     sodipodi:ry="8"
     style="fill:none;stroke:#0000ff;stroke-width:1.5"
     transform="translate(-98.75,-98.750011)" />
  <line
     x1="-10.75"
     x2="-36.75"
     y1="264.45001"
     y2="264.45001"
     id="line71"
     style="stroke:#000000;stroke-width:1;stroke-linecap:square" />
  <line
     x1="-23.75"
     x2="-23.75"
     y1="277.45001"
     y2="251.45"
     id="line73"
     style="stroke:#000000;stroke-width:1;stroke-linecap:square" />
  <line
     x1="89.25"
     x2="63.25"
     y1="264.45001"
     y2="264.45001"
     id="line75"
     style="stroke:#000000;stroke-width:1;stroke-linecap:square" />
  <line
     x1="76.25"
     x2="76.25"
     y1="277.45001"
     y2="251.45"
     id="line77"
     style="stroke:#000000;stroke-width:1;stroke-linecap:square" />
  <circle
     cx="75"
     cy="403.20001"
     r="8"
     id="circle79"
     sodipodi:cx="75"
     sodipodi:cy="403.20001"
     sodipodi:rx="8"
     sodipodi:ry="8"
     style="fill:none;stroke:#0000ff;stroke-width:1.5"
     transform="translate(-98.75,-98.750011)" />
  <circle
     cx="175"
     cy="403.20001"
     r="8"
     id="circle81"
     sodipodi:cx="175"
     sodipodi:cy="403.20001"
     sodipodi:rx="8"
     sodipodi:ry="8"
     style="fill:none;stroke:#0000ff;stroke-width:1.5"
     transform="translate(-98.75,-98.750011)" />
  <line
     x1="-10.75"
     x2="-36.75"
     y1="304.45001"
     y2="304.45001"
     id="line83"
     style="stroke:#000000;stroke-width:1;stroke-linecap:square" />
  <line
     x1="-23.75"
     x2="-23.75"
     y1="317.45001"
     y2="291.45001"
     id="line85"
     style="stroke:#000000;stroke-width:1;stroke-linecap:square" />
  <line
     x1="89.25"
     x2="63.25"
     y1="304.45001"
     y2="304.45001"
     id="line87"
     style="stroke:#000000;stroke-width:1;stroke-linecap:square" />
  <line
     x1="76.25"
     x2="76.25"
     y1="317.45001"
     y2="291.45001"
     id="line89"
     style="stroke:#000000;stroke-width:1;stroke-linecap:square" />
  <circle
     cx="75"
     cy="443.20001"
     r="8"
     id="circle91"
     sodipodi:cx="75"
     sodipodi:cy="443.20001"
     sodipodi:rx="8"
     sodipodi:ry="8"
     style="fill:none;stroke:#0000ff;stroke-width:1.5"
     transform="translate(-98.75,-98.750011)" />
  <circle
     cx="175"
     cy="443.20001"
     r="8"
     id="circle93"
     sodipodi:cx="175"
     sodipodi:cy="443.20001"
     sodipodi:rx="8"
     sodipodi:ry="8"
     style="fill:none;stroke:#0000ff;stroke-width:1.5"
     transform="translate(-98.75,-98.750011)" />
  <line
     x1="-10.75"
     x2="-36.75"
     y1="344.45001"
     y2="344.45001"
     id="line95"
     style="stroke:#000000;stroke-width:1;stroke-linecap:square" />
  <line
     x1="-23.75"
     x2="-23.75"
     y1="357.45001"
     y2="331.45001"
     id="line97"
     style="stroke:#000000;stroke-width:1;stroke-linecap:square" />
  <line
     x1="89.25"
     x2="63.25"
     y1="344.45001"
     y2="344.45001"
     id="line99"
     style="stroke:#000000;stroke-width:1;stroke-linecap:square" />
  <line
     x1="76.25"
     x2="76.25"
     y1="357.45001"
     y2="331.45001"
     id="line101"
     style="stroke:#000000;stroke-width:1;stroke-linecap:square" />
  <line
     x1="271.25"
     x2="251.25"
     y1="162.45"
     y2="162.45"
     id="line107"
     style="stroke:#000000;stroke-width:2.5;stroke-linecap:square;stroke-opacity:1" />
  <line
     x1="271.25"
     x2="251.25"
     y1="180.45"
     y2="180.45"
     id="line109"
     style="stroke:#000000;stroke-width:2.5;stroke-linecap:square;stroke-opacity:1" />
  <line
     x1="103.25"
     x2="228.25"
     y1="164.45"
     y2="164.45"
     id="line127"
     style="stroke:#d8d8d8;stroke-width:2.5;stroke-linecap:square;stroke-opacity:0.7" />
  <line
     x1="76.25"
     x2="228.25"
     y1="180.45"
     y2="180.45"
     id="line131"
     style="stroke:#d8d8d8;stroke-width:2.5;stroke-linecap:square;stroke-opacity:0.7" />
  <line
     x1="103.25"
     x2="228.25"
     y1="194.45"
     y2="194.45"
     id="line133"
     style="stroke:#d8d8d8;stroke-width:2.5;stroke-linecap:square;stroke-opacity:0.7" />
  <text
     font-size="28"
     x="216.39963"
     y="515.33508"
     id="text137"
     style="font-size:28px;fill:#000000;font-family:sans-serif">Beam</text>
  <text
     font-size="28"
     x="-167.35001"
     y="769.25"
     id="text139"
     style="font-size:28px;fill:#000000;font-family:sans-serif" />
  <polyline
     points="250,800 320.0,870.0 528.0,870.0"
     id="polyline141"
     style="fill:none;stroke:#000000;stroke-width:2.5;marker-start:url(#id242)"
     transform="matrix(0.77151091,0,0,1.0042774,-41.777436,-102.32162)" />
  <text
     font-size="28"
     x="235.75793"
     y="760.44092"
     id="text143"
     style="font-size:28px;fill:#000000;font-family:sans-serif">Column</text>
  <text
     font-size="28"
     x="242.04999"
     y="789.25"
     id="text145"
     style="font-size:28px;fill:#000000;font-family:sans-serif" />
  <text
     font-size="28"
     x="248.75"
     y="552.45001"
     id="text151"
     style="font-size:28px;fill:#000000;font-family:sans-serif" />
  <text
     font-size="28"
     x="37.300003"
     y="-99.650009"
     id="text163"
     style="font-size:28px;fill:#000000;font-family:sans-serif" />
  <line
     x1="271.30969"
     x2="251.30969"
     y1="194.856"
     y2="194.856"
     id="line109-2"
     style="stroke:#000000;stroke-width:2.5;stroke-linecap:square;stroke-opacity:1" />
  <text
     style="font-size:28px;fill:#000000;font-family:sans-serif"
     font-size="28"
     x="188.88199"
     y="405.60767"
     id="text161-2">End Plate</text>
  <polyline
     style="fill:none;stroke:#000000;stroke-width:2.5;marker-start:url(#id242)"
     transform="matrix(0.78817646,0,0,1.0039449,-82.80331,-453.66509)"
     points="250,800 320.0,870.0 528.0,870.0"
     id="polyline141-1" />
  <g
     transform="matrix(7.2781674,0,0,7.2781674,20.82306,15.288329)"
     id="g3282">
    <g
       style="font-style:normal;font-variant:normal;font-weight:normal;font-stretch:normal;letter-spacing:normal;word-spacing:normal;text-anchor:start;fill:none;stroke:#000000;stroke-linecap:butt;stroke-linejoin:miter;stroke-miterlimit:10.43299961;stroke-opacity:1;stroke-dasharray:none;stroke-dashoffset:0"
       id="content"
       transform="matrix(0.14285714,0,0,-0.14285714,-25,75)"
       xml:space="preserve"
       stroke-miterlimit="10.433"
       font-style="normal"
       font-variant="normal"
       font-weight="normal"
       font-stretch="normal"
       font-size-adjust="none"
       letter-spacing="normal"
       word-spacing="normal"><path
         style="fill:#000000;stroke-width:0"
         inkscape:connector-curvature="0"
         d="m 459.91,409.14 -0.02,-0.07 -0.01,-0.08 -0.02,-0.07 -0.01,-0.08 -0.04,-0.16 -0.04,-0.16 -0.03,-0.16 -0.04,-0.16 -0.04,-0.16 -0.04,-0.16 -0.01,-0.08 -0.02,-0.07 -0.02,-0.07 -0.01,-0.07 -0.02,-0.07 -0.01,-0.07 -0.01,-0.06 -0.01,-0.06 -0.01,-0.06 -0.01,-0.05 -0.01,-0.05 -0.01,-0.04 -0.01,-0.04 0,-0.04 0,-0.03 0,-0.02 c 0,-0.89 0.7,-1.35 1.43,-1.35 0.61,0 1.5,0.39 1.85,1.39 0.11,0.21 1.8,6.99 2,7.88 0.39,1.64 1.3,5.12 1.59,6.48 0.21,0.64 1.6,2.99 2.78,4.08 0.41,0.34 1.85,1.64 4,1.64 1.28,0 2.03,-0.59 2.08,-0.59 -1.48,-0.25 -2.58,-1.46 -2.58,-2.74 0,-0.79 0.55,-1.75 1.89,-1.75 1.35,0 2.74,1.14 2.74,2.94 0,1.75 -1.6,3.23 -4.13,3.23 -3.25,0 -5.43,-2.43 -6.39,-3.82 -0.39,2.23 -2.18,3.82 -4.53,3.82 -2.28,0 -3.23,-1.93 -3.69,-2.82 -0.89,-1.71 -1.54,-4.69 -1.54,-4.85 0,-0.5 0.5,-0.5 0.61,-0.5 0.5,0 0.54,0.07 0.84,1.16 0.84,3.53 1.84,5.92 3.64,5.92 0.84,0 1.55,-0.39 1.55,-2.28 0,-1.05 -0.16,-1.61 -0.8,-4.19 z"
         id="path3285" /><path
         style="fill:#000000;stroke-width:0"
         inkscape:connector-curvature="0"
         d="m 489.63,420.92 0,0.04 0,0.04 0,0.05 0,0.04 0,0.03 0,0.04 0,0.04 0,0.03 0,0.04 0,0.03 -0.01,0.03 0,0.03 0,0.03 -0.01,0.03 0,0.03 0,0.02 -0.01,0.03 0,0.02 -0.01,0.03 0,0.02 -0.01,0.04 -0.02,0.04 -0.02,0.03 -0.02,0.03 -0.02,0.03 -0.02,0.03 -0.03,0.02 -0.03,0.02 -0.03,0.02 -0.04,0.01 -0.04,0.01 -0.05,0.02 -0.02,0 -0.02,0 -0.03,0.01 -0.03,0 -0.02,0.01 -0.03,0 -0.03,0 -0.03,0 -0.03,0 -0.04,0.01 -0.03,0 -0.04,0 -0.03,0 -0.04,0 -0.04,0 -0.04,0 -0.04,0 -0.04,0 -0.05,0 -0.04,0 c -2.24,-2.2 -5.39,-2.23 -6.83,-2.23 v -1.25 c 0.84,0 3.14,0 5.04,0.97 v -17.77 c 0,-1.16 0,-1.61 -3.48,-1.61 h -1.31 v -1.25 c 0.62,0.03 4.9,0.14 6.2,0.14 1.08,0 5.47,-0.11 6.24,-0.14 v 1.25 h -1.33 c -3.49,0 -3.49,0.45 -3.49,1.61 z"
         id="path3287" /></g>  </g>
  <line
     x1="261.97882"
     x2="261.97882"
     y1="163.67229"
     y2="193.27681"
     id="line107-5"
     style="stroke:#000000;stroke-width:3.04161334;stroke-linecap:square;stroke-opacity:1" />
  <g
     id="g3475"
     transform="matrix(10.331747,0,0,10.331747,-90.027535,43.532619)">
    <g
       word-spacing="normal"
       letter-spacing="normal"
       font-size-adjust="none"
       font-stretch="normal"
       font-weight="normal"
       font-variant="normal"
       font-style="normal"
       stroke-miterlimit="10.433"
       xml:space="preserve"
       transform="matrix(0.14285714,0,0,-0.14285714,-25,75)"
       id="g3477"
       style="font-style:normal;font-variant:normal;font-weight:normal;font-stretch:normal;letter-spacing:normal;word-spacing:normal;text-anchor:start;fill:none;stroke:#000000;stroke-linecap:butt;stroke-linejoin:miter;stroke-miterlimit:10.43299961;stroke-opacity:1;stroke-dasharray:none;stroke-dashoffset:0"><path
         id="path3479"
         d="m 470.36,417.46 0.15,0.01 0.16,0 0.15,0 0.07,0 0.08,0.01 0.07,0 0.07,0.01 0.07,0.01 0.07,0.01 0.07,0.01 0.07,0.02 0.06,0.01 0.06,0.02 0.06,0.02 0.06,0.03 0.06,0.02 0.05,0.03 0.05,0.03 0.04,0.04 0.04,0.04 0.04,0.04 0.04,0.05 0.01,0.02 0.02,0.03 0.01,0.02 0.01,0.03 0.02,0.03 0.01,0.03 0,0.03 0.01,0.03 0.01,0.04 0.01,0.03 0,0.04 0,0.03 0.01,0.04 0,0.04 c 0,0.69 -0.61,0.69 -1.46,0.69 h -8.06 c 1.19,4.23 3.99,7.12 8.52,7.12 h 1.54 c 0.85,0 1.64,0 1.64,0.86 0,0.69 -0.65,0.69 -1.5,0.69 h -1.73 c -6.48,0 -13.16,-4.99 -13.16,-12.6 0,-5.48 3.74,-9.42 9.02,-9.42 3.23,0 6.48,1.99 6.48,2.55 0,0.14 -0.06,0.69 -0.5,0.69 -0.11,0 -0.2,0 -0.65,-0.3 -1.55,-1 -3.39,-1.84 -5.24,-1.84 -2.89,0 -5.37,2.09 -5.37,6.48 0,1.73 0.4,3.63 0.54,4.23 z"
         inkscape:connector-curvature="0"
         style="fill:#000000;stroke-width:0" /></g>  </g>
  <path
     style="fill:none;stroke:#000000;stroke-width:2.5;stroke-linecap:butt;stroke-linejoin:miter;stroke-miterlimit:4;stroke-opacity:1;stroke-dasharray:none;marker-start:url(#id240)"
     d="M 277.30932,169.89406 307.8178,139.38558"
     id="path3567"
     inkscape:connector-curvature="0" />
  <path
     style="fill:none;stroke:#000000;stroke-width:2.5;stroke-linecap:butt;stroke-linejoin:miter;stroke-miterlimit:4;stroke-opacity:1;stroke-dasharray:none;marker-start:url(#id240)"
     d="m 275.40254,187.05507 44.49153,15.88983"
     id="path3569"
     inkscape:connector-curvature="0" />
  <polyline
     style="fill:none;stroke:#000000;stroke-width:2.5;marker-start:url(#id242)"
     transform="translate(-182.32867,-342.1236)"
     points="250,800 320.0,870.0 528.0,870.0"
     id="polyline141-1-7" />
</svg>
