<?xml version="1.0" encoding="UTF-8" standalone="no"?>
<svg
   xmlns:dc="http://purl.org/dc/elements/1.1/"
   xmlns:cc="http://creativecommons.org/ns#"
   xmlns:rdf="http://www.w3.org/1999/02/22-rdf-syntax-ns#"
   xmlns:svg="http://www.w3.org/2000/svg"
   xmlns="http://www.w3.org/2000/svg"
   xmlns:sodipodi="http://sodipodi.sourceforge.net/DTD/sodipodi-0.dtd"
   xmlns:inkscape="http://www.inkscape.org/namespaces/inkscape"
   height="100%"
   version="1.1"
   viewBox="-340 -350 1200 1300"
   width="100%"
   id="svg2"
   inkscape:version="0.48.4 r9939"
   sodipodi:docname="finfront_ecc.svg">
  <sodipodi:namedview
     pagecolor="#ffffff"
     bordercolor="#666666"
     borderopacity="1"
     objecttolerance="10"
     gridtolerance="10"
     guidetolerance="10"
     inkscape:pageopacity="0"
     inkscape:pageshadow="2"
     inkscape:window-width="1301"
     inkscape:window-height="744"
     id="namedview217"
     showgrid="false"
     inkscape:zoom="2.0538732"
     inkscape:cx="558.38109"
     inkscape:cy="655.98251"
     inkscape:window-x="65"
     inkscape:window-y="24"
     inkscape:window-maximized="1"
     inkscape:current-layer="svg2">
    <inkscape:grid
       id="grid3077"
       type="xygrid" />
  </sodipodi:namedview>
  <metadata
     id="metadata219">
    <rdf:RDF>
      <cc:Work
         rdf:about="">
        <dc:format>image/svg+xml</dc:format>
        <dc:type
           rdf:resource="http://purl.org/dc/dcmitype/StillImage" />
        <dc:title />
      </cc:Work>
    </rdf:RDF>
  </metadata>
  <defs
     id="defs4">
    <pattern
       width="6"
       patternUnits="userSpaceOnUse"
       patternTransform="rotate(45 2 2)"
       id="diagonalHatch"
       height="8">
      <path
         id="path7"
         stroke-width="2.5"
         stroke="#000000"
         d="M -1,2 l 6,0" />
    </pattern>
    <marker
       refY="3"
       refX="8"
       orient="auto"
       markerWidth="30"
       markerHeight="30"
       id="id1">
      <path
         id="path10"
         fill="black"
         d=" M0,0 L3,3 L0,6 L8,3 L0,0" />
    </marker>
    <marker
       refY="3"
       refX="0"
       orient="auto"
       markerWidth="30"
       markerHeight="20"
       id="id2">
      <path
         id="path13"
         fill="black"
         d=" M0,3 L8,6 L5,3 L8,0 L0,3" />
    </marker>
    <marker
       refY="5"
       refX="0"
       orient="auto"
       markerWidth="10"
       markerHeight="10"
       id="id3">
      <path
         id="path16"
         stroke="black"
         fill="blue"
         d="M 0 0 L 10 5 L 0 10 z" />
    </marker>
    <marker
       refY="5"
       refX="0"
       orient="auto"
       markerWidth="10"
       markerHeight="10"
       id="id4">
      <path
         id="path19"
         stroke="black"
         fill="blue"
         d="M 0 0 L 10 5 L 0 10 z" />
    </marker>
    <marker
       refY="3"
       refX="8"
       orient="auto"
       markerWidth="30"
       markerHeight="30"
       id="id5">
      <path
         id="path22"
         fill="black"
         d=" M0,0 L3,3 L0,6 L8,3 L0,0" />
    </marker>
    <marker
       refY="3"
       refX="0"
       orient="auto"
       markerWidth="30"
       markerHeight="20"
       id="id6">
      <path
         id="path25"
         fill="black"
         d=" M0,3 L8,6 L5,3 L8,0 L0,3" />
    </marker>
    <marker
       refY="3"
       refX="8"
       orient="auto"
       markerWidth="30"
       markerHeight="30"
       id="id7">
      <path
         id="path28"
         fill="black"
         d=" M0,0 L3,3 L0,6 L8,3 L0,0" />
    </marker>
    <marker
       refY="3"
       refX="0"
       orient="auto"
       markerWidth="30"
       markerHeight="20"
       id="id8">
      <path
         id="path31"
         fill="black"
         d=" M0,3 L8,6 L5,3 L8,0 L0,3" />
    </marker>
    <marker
       refY="3"
       refX="8"
       orient="auto"
       markerWidth="30"
       markerHeight="30"
       id="id9">
      <path
         id="path34"
         fill="black"
         d=" M0,0 L3,3 L0,6 L8,3 L0,0" />
    </marker>
    <marker
       refY="3"
       refX="0"
       orient="auto"
       markerWidth="30"
       markerHeight="20"
       id="id10">
      <path
         id="path37"
         fill="black"
         d=" M0,3 L8,6 L5,3 L8,0 L0,3" />
    </marker>
    <marker
       refY="3"
       refX="8"
       orient="auto"
       markerWidth="30"
       markerHeight="30"
       id="id11">
      <path
         id="path40"
         fill="black"
         d=" M0,0 L3,3 L0,6 L8,3 L0,0" />
    </marker>
    <marker
       refY="3"
       refX="0"
       orient="auto"
       markerWidth="30"
       markerHeight="20"
       id="id12">
      <path
         id="path43"
         fill="black"
         d=" M0,3 L8,6 L5,3 L8,0 L0,3" />
    </marker>
    <marker
       refY="3"
       refX="8"
       orient="auto"
       markerWidth="30"
       markerHeight="30"
       id="id13">
      <path
         id="path46"
         fill="black"
         d=" M0,0 L3,3 L0,6 L8,3 L0,0" />
    </marker>
    <marker
       refY="3"
       refX="0"
       orient="auto"
       markerWidth="30"
       markerHeight="20"
       id="id14">
      <path
         id="path49"
         fill="black"
         d=" M0,3 L8,6 L5,3 L8,0 L0,3" />
    </marker>
    <marker
       refY="3"
       refX="0"
       orient="auto"
       markerWidth="30"
       markerHeight="20"
       id="id15">
      <path
         id="path52"
         fill="black"
         d=" M0,3 L8,6 L5,3 L8,0 L0,3" />
    </marker>
    <marker
       refY="3"
       refX="0"
       orient="auto"
       markerWidth="30"
       markerHeight="20"
       id="id16">
      <path
         id="path55"
         fill="black"
         d=" M0,3 L8,6 L5,3 L8,0 L0,3" />
    </marker>
    <marker
       refY="3"
       refX="0"
       orient="auto"
       markerWidth="30"
       markerHeight="20"
       id="id17">
      <path
         id="path58"
         fill="black"
         d=" M0,3 L8,6 L5,3 L8,0 L0,3" />
    </marker>
    <marker
       refY="7.5"
       refX="15"
       orient="auto"
       markerWidth="15"
       markerHeight="15"
       id="id18">
      <path
         id="path61"
         stroke="black"
         fill="none"
         d="M 0 0 L 8 7.5 L 0 15 z" />
    </marker>
    <marker
       refY="3"
       refX="0"
       orient="auto"
       markerWidth="30"
       markerHeight="20"
       id="id19">
      <path
         id="path64"
         fill="black"
         d=" M0,3 L8,6 L5,3 L8,0 L0,3" />
    </marker>
    <marker
       refY="3"
       refX="0"
       orient="auto"
       markerWidth="30"
       markerHeight="20"
       id="id20">
      <path
         id="path67"
         fill="black"
         d=" M0,3 L8,6 L5,3 L8,0 L0,3" />
    </marker>
    <marker
       refY="3"
       refX="0"
       orient="auto"
       markerWidth="30"
       markerHeight="20"
       id="id77">
      <path
         id="path40-6"
         d="M 0,3 8,6 5,3 8,0 0,3"
         inkscape:connector-curvature="0"
         style="fill:#000000" />
    </marker>
    <marker
       refY="7.5"
       refX="45"
       orient="auto"
       markerWidth="15"
       markerHeight="15"
       id="id78">
      <path
         id="path43-1"
         d="M 0,0 8,7.5 0,15 z"
         inkscape:connector-curvature="0"
         style="fill:none;stroke:#000000" />
    </marker>
    <marker
       refY="3"
       refX="0"
       orient="auto"
       markerWidth="30"
       markerHeight="20"
       id="id15-9">
      <path
         id="path52-2"
         d="M 0,3 8,6 5,3 8,0 0,3"
         inkscape:connector-curvature="0"
         style="fill:#000000" />
    </marker>
  </defs>
  <polyline
     id="polyline69"
     stroke-width="2.5"
     stroke="blue"
     points="0,0 200,0.0 200,700 0.0,700 0,0"
     fill="none" />
  <line
     id="line71"
     y2="700"
     y1="0.0"
     x2="15.0"
     x1="15.0"
     stroke-width="2.5"
     stroke-linecap="square"
     stroke="blue" />
  <line
     id="line73"
     y2="700"
     y1="0.0"
     x2="185.0"
     x1="185.0"
     stroke-width="2.5"
     stroke-linecap="square"
     stroke="blue" />
  <polyline
     id="polyline75"
     stroke-width="2.5"
     stroke="blue"
     points="220.0,183.0 220,150 570,150 570,550 220,550 220,463.0"
     fill="none" />
  <line
     id="line77"
     y2="463.0"
     y1="183.0"
     x2="220"
     x1="220.0"
     stroke-width="2.5"
     stroke-linecap="square"
     stroke-dasharray="5 5"
     stroke="red" />
  <line
     id="line79"
     y2="166.0"
     y1="166.0"
     x2="570"
     x1="220"
     stroke-width="2.5"
     stroke-linecap="square"
     stroke="blue" />
  <line
     id="line81"
     y2="534.0"
     y1="534.0"
     x2="570"
     x1="220"
     stroke-width="2.5"
     stroke-linecap="square"
     stroke="blue" />
  <rect
     id="rect83"
     y="183.0"
     x="200"
     width="12"
     stroke-width="2.0"
     stroke="white"
     height="280.0"
     fill="url(#diagonalHatch)" />
  <rect
     id="rect85"
     y="183.0"
     x="200"
     width="100.0"
     stroke-width="2.5"
     stroke="blue"
     height="280.0"
     fill="none" />
  <rect
     id="rect87"
     y="183.0"
     x="200"
     width="100.0"
     stroke-width="2.5"
     stroke="blue"
     height="280.0"
     fill="none" />
  <circle
     id="circle89"
     stroke-width="1.5"
     stroke="blue"
     r="10"
     fill="none"
     cy="223.0"
     cx="260.0" />
  <line
     id="line91"
     y2="223.0"
     y1="223.0"
     x2="274.0"
     x1="246.0"
     stroke-width="2.0"
     stroke-linecap="square"
     stroke="red" />
  <line
     id="line93"
     y2="463.0"
     y1="183.0"
     x2="260.0"
     x1="260.0"
     stroke-width="1.5"
     stroke-linecap="square"
     stroke-dasharray="20 5 1 5"
     stroke="blue" />
  <circle
     id="circle95"
     stroke-width="1.5"
     stroke="blue"
     r="10"
     fill="none"
     cy="323.0"
     cx="260.0" />
  <line
     id="line97"
     y2="323.0"
     y1="323.0"
     x2="274.0"
     x1="246.0"
     stroke-width="2.0"
     stroke-linecap="square"
     stroke="red" />
  <line
     id="line99"
     y2="463.0"
     y1="183.0"
     x2="260.0"
     x1="260.0"
     stroke-width="1.5"
     stroke-linecap="square"
     stroke-dasharray="20 5 1 5"
     stroke="blue" />
  <circle
     id="circle101"
     stroke-width="1.5"
     stroke="blue"
     r="10"
     fill="none"
     cy="423.0"
     cx="260.0" />
  <line
     id="line103"
     y2="423.0"
     y1="423.0"
     x2="274.0"
     x1="246.0"
     stroke-width="2.0"
     stroke-linecap="square"
     stroke="red" />
  <line
     id="line105"
     y2="463.0"
     y1="183.0"
     x2="260.0"
     x1="260.0"
     stroke-width="1.5"
     stroke-linecap="square"
     stroke-dasharray="20 5 1 5"
     stroke="blue" />
  <text
     style="font-size:28px;fill:#000000;font-family:sans-serif"
     id="text109"
     y="323"
     x="-285"
     font-size="28" />
  <text
     style="font-size:28px;fill:#000000;font-family:sans-serif"
     id="text127"
     y="166.5"
     x="-175"
     font-size="28" />
  <text
     style="font-size:28px;fill:#000000;font-family:sans-serif"
     id="text137"
     y="203"
     x="-175"
     font-size="28" />
  <text
     style="font-size:28px;fill:#000000;font-family:sans-serif"
     id="text145"
     y="443"
     x="-175"
     font-size="28" />
  <line
     id="line159"
     y2="-5.0"
     y1="183.0"
     x2="300.0"
     x1="300.0"
     stroke-width="2.5"
     stroke-opacity="0.7"
     stroke-linecap="square"
     stroke="#D8D8D8" />
  <line
     id="line161"
     y2="720.0"
     y1="740.0"
     x2="200.0"
     x1="200.0"
     stroke-width="2.5"
     stroke-linecap="square"
     stroke="black" />
  <line
     id="line163"
     y2="720.0"
     y1="740.0"
     x2="220.0"
     x1="220.0"
     stroke-width="2.5"
     stroke-linecap="square"
     stroke="black" />
  <line
     id="line165"
     y2="730.0"
     y1="730.0"
     x2="200.0"
     x1="150.0"
     stroke-width="2.5"
     stroke-linecap="square"
     stroke="black"
     marker-end="url(#id13)" />
  <line
     id="line167"
     y2="730.0"
     y1="730.0"
     x2="220.0"
     x1="270.0"
     stroke-width="2.5"
     stroke-linecap="butt"
     stroke="black"
     marker-end="url(#id13)" />
  <text
     style="font-size:28px;fill:#000000;font-family:sans-serif"
     id="text169"
     y="730"
     x="290"
     font-size="28">cleargap</text>
  <line
     id="line171"
     y2="720"
     y1="700"
     x2="200"
     x1="200"
     stroke-width="2.5"
     stroke-opacity="0.7"
     stroke-linecap="square"
     stroke="#D8D8D8" />
  <line
     id="line173"
     y2="620"
     y1="550"
     x2="220"
     x1="220"
     stroke-width="2.5"
     stroke-opacity="0.7"
     stroke-linecap="square"
     stroke="#D8D8D8" />
  <line
     id="line175"
     y2="-5.0"
     y1="183.0"
     x2="260.0"
     x1="260.0"
     stroke-width="2.5"
     stroke-opacity="0.7"
     stroke-linecap="square"
     stroke="#D8D8D8" />
  <polyline
     id="polyline185"
     stroke-width="2.5"
     stroke="black"
     points="570,350 570.0,350.0 778.0,350.0"
     marker-start="url(#id15)"
     fill="none" />
  <text
     style="font-size:28px;fill:#000000;font-family:sans-serif"
     id="text187"
     y="335.89508"
     x="695.96716"
     font-size="28">Beam</text>
  <text
     id="text189"
     y="383.0"
     x="590.8"
     font-size="28"
     font-family="sans-serif"
     fill="black" />
  <polyline
     fill="none"
     stroke="black"
     stroke-width="2.5"
     marker-start="url(#id16)"
     id="polyline191"
     points="10,0 -59.2820323028,-40.0 -299.282032303,-40.0" />
  <text
     style="font-size:28px;fill:#000000;font-family:sans-serif"
     id="text193"
     y="-61.895081"
     x="-299.97052"
     font-size="28">Column</text>
  <text
     id="text195"
     y="-22.0"
     x="-323.282032303"
     font-size="28"
     font-family="sans-serif"
     fill="black" />
  <text
     style="font-size:28px;fill:#000000;font-family:sans-serif"
     id="text199"
     y="476.30466"
     x="704.0257"
     font-size="28">Weld</text>
  <text
     id="text201"
     y="41.0"
     x="-258.0"
     font-size="28"
     font-family="sans-serif"
     fill="black" />
  <polyline
     id="polyline203"
     stroke-width="2.5"
     stroke="black"
     points="260.0,223.0 410.0,73.0 794.0,73.0"
     marker-start="url(#id19)"
     fill="none" />
  <text
     style="font-size:28px;fill:#000000;font-family:sans-serif"
     id="text205"
     y="55"
     x="448.39999"
     font-size="28" />
  <text
     style="font-size:28px;fill:#000000;font-family:sans-serif"
     id="text207"
     y="63.154125"
     x="648.99658"
     font-size="28">Bolt Holes</text>
  <polyline
     style="fill:none;stroke:#000000;stroke-width:3.11793923;marker-start:url(#id20)"
     transform="matrix(1.1012341,0,0,0.7066169,23.505189,135.96158)"
     id="polyline209"
     points="250.0,463.0 450.0,663.0 690.0,663.0" />
  <text
     style="font-size:28px;fill:#000000;font-family:sans-serif"
     id="text211"
     y="584.62628"
     x="676.54413"
     font-size="28">Finplate</text>
  <text
     id="text213"
     y="696.0"
     x="474.0"
     font-size="28"
     font-family="sans-serif"
     fill="black" />
  <polyline
     style="fill:none;stroke:#000000;stroke-width:2.32614136;marker-start:url(#id77);marker-end:url(#id78)"
     transform="matrix(0.8871368,0,0,0.9110797,-92.655445,200.04083)"
     id="polyline143"
     points="330.55,140.5 705.838711089,315.5 977.838711089,315.5" />
  <text
     style="font-size:28px;fill:#000000;font-family:sans-serif"
     id="text127-8"
     y="842.8197"
     x="74.817329"
     font-size="28"><tspan
   id="tspan3348"
   style="font-weight:bold">Figure</tspan>





: Fin Plate Connection</text>
  <text
     id="text3346"
     style="font-size:28px;fill:#000000;font-family:sans-serif"
     y="879.82294"
     x="-12.821968"
     font-size="28">Column Flange to Beam Web connectivity</text>
  <g
     style="stroke-width:0.5;stroke-miterlimit:4;stroke-dasharray:none"
     id="g3144">
    <path
       style="fill:none;stroke:#000000;stroke-width:0.5;stroke-linecap:butt;stroke-linejoin:miter;stroke-opacity:1;stroke-miterlimit:4;stroke-dasharray:none"
       d="m 540,330 60,0"
       id="path3079"
       inkscape:connector-curvature="0"
       transform="translate(-340,-350)" />
    <path
       style="fill:none;stroke:#000000;stroke-width:0.5;stroke-linecap:butt;stroke-linejoin:miter;stroke-opacity:1;stroke-miterlimit:4;stroke-dasharray:none"
       d="m 200,-27 0,15"
       id="path3081"
       inkscape:connector-curvature="0" />
    <path
       style="fill:none;stroke:#000000;stroke-width:0.5;stroke-linecap:butt;stroke-linejoin:miter;stroke-opacity:1;stroke-miterlimit:4;stroke-dasharray:none"
       d="m 259.75656,-26.97377 0,15"
       id="path3081-3"
       inkscape:connector-curvature="0" />
    <path
       style="fill:none;stroke:#000000;stroke-width:0.5;stroke-linecap:butt;stroke-linejoin:miter;stroke-opacity:1;stroke-miterlimit:4;stroke-dasharray:none"
       d="m 205.47295,-25.033324 -10.53806,10.674698"
       id="path3081-5"
       inkscape:connector-curvature="0" />
    <path
       style="fill:none;stroke:#000000;stroke-width:0.5;stroke-linecap:butt;stroke-linejoin:miter;stroke-opacity:1;stroke-miterlimit:4;stroke-dasharray:none"
       d="m 264.78439,-24.68904 -10.53806,10.6747"
       id="path3081-5-5"
       inkscape:connector-curvature="0" />
  </g>
  <g
     transform="matrix(4.7158371,0,0,4.7158371,17.517233,-124.59292)"
     id="g3194">
    <g
       style="font-style:normal;font-variant:normal;font-weight:normal;font-stretch:normal;letter-spacing:normal;word-spacing:normal;text-anchor:start;fill:none;stroke:#000000;stroke-linecap:butt;stroke-linejoin:miter;stroke-miterlimit:10.43299961;stroke-opacity:1;stroke-dasharray:none;stroke-dashoffset:0"
       id="content"
       transform="matrix(0.14285714,0,0,-0.14285714,-25,75)"
       xml:space="preserve"
       stroke-miterlimit="10.433"
       font-style="normal"
       font-variant="normal"
       font-weight="normal"
       font-stretch="normal"
       font-size-adjust="none"
       letter-spacing="normal"
       word-spacing="normal"><path
         style="fill:#000000;stroke-width:0"
         inkscape:connector-curvature="0"
         d="m 481.22,440.23 0,0 0,0.01 0,0 0,0.01 0,0.02 0,0.01 0,0.02 0,0.02 -0.01,0.02 0,0.02 -0.01,0.02 0,0.02 -0.01,0.02 -0.01,0.03 -0.01,0.02 -0.01,0.03 -0.02,0.02 -0.01,0.03 -0.02,0.02 -0.02,0.02 -0.02,0.03 -0.02,0.01 -0.01,0.01 -0.01,0.01 -0.02,0.01 -0.01,0.01 -0.02,0.01 -0.01,0.01 -0.02,0.01 -0.01,0.01 -0.02,0.01 -0.02,0 -0.02,0.01 -0.02,0.01 -0.02,0 -0.02,0.01 -0.03,0.01 -0.02,0 -0.02,0 -0.03,0.01 -0.03,0 -0.02,0 -0.03,0.01 -0.03,0 -0.03,0 c -0.75,0 -5.48,-0.46 -6.33,-0.55 -0.4,-0.05 -0.7,-0.3 -0.7,-0.95 0,-0.6 0.45,-0.6 1.2,-0.6 2.39,0 2.49,-0.34 2.49,-0.84 l -0.14,-1 -3,-11.81 c -0.89,1.84 -2.35,3.18 -4.58,3.18 l 0.05,-1.09 c 3.23,0 3.93,-4.08 3.93,-4.37 0,-0.32 -0.09,-0.61 -0.14,-0.86 l -2.5,-9.77 c -0.25,-0.89 -0.25,-0.98 -1,-1.84 -2.18,-2.74 -4.23,-3.53 -5.62,-3.53 -2.49,0 -3.19,2.73 -3.19,4.68 0,2.49 1.59,8.61 2.74,10.91 1.54,2.94 3.79,4.78 5.78,4.78 l -0.05,1.09 c -5.83,0 -12,-7.31 -12,-14.59 0,-4.69 2.73,-7.97 6.62,-7.97 0.99,0 3.49,0.21 6.47,3.74 0.41,-2.1 2.14,-3.74 4.53,-3.74 1.75,0 2.9,1.14 3.69,2.74 0.85,1.79 1.5,4.84 1.5,4.93 0,0.5 -0.45,0.5 -0.59,0.5 -0.5,0 -0.55,-0.2 -0.7,-0.9 -0.85,-3.24 -1.75,-6.17 -3.79,-6.17 -1.34,0 -1.5,1.29 -1.5,2.29 0,1.19 0.1,1.55 0.3,2.39 z"
         id="path3197" /><path
         style="fill:#000000;stroke-width:0"
         inkscape:connector-curvature="0"
         d="m 490.64,421.9 0.01,0.01 0,0 0,0 0,0.01 0,0 0.01,0.01 0,0.01 0,0 0,0.01 0,0.01 0.01,0.01 0,0.02 0.01,0.02 0.01,0.02 0,0.02 0.01,0.02 0,0.02 0.01,0.03 0,0.02 0.02,0.05 0.01,0.04 0,0.03 0.01,0.02 0,0.02 0.01,0.02 0,0.02 0.01,0.02 0,0.02 0,0.01 0.01,0.01 0,0.01 0,0 0,0.01 0,0 0,0.01 0,0 0,0.01 0,0 0,0 0,0.01 0.01,0 c 0,0.19 -0.15,0.5 -0.57,0.5 -0.7,0 -3.59,-0.28 -4.45,-0.36 -0.28,-0.03 -0.78,-0.06 -0.78,-0.8 0,-0.48 0.5,-0.48 0.9,-0.48 1.68,0 1.68,-0.25 1.68,-0.53 0,-0.24 -0.35,-1.63 -0.55,-2.44 l -0.8,-3.2 c -0.33,-1.19 -2.23,-8.82 -2.31,-9.27 -0.17,-0.84 -0.17,-1.3 -0.17,-1.7 0,-3.53 2.23,-5.75 5.12,-5.75 l 0.03,0.97 c -1.7,0 -2.67,1.5 -2.67,3.56 0,1.28 0.32,2.47 1.28,6.41 0.21,0.65 0.21,0.73 0.88,1.5 1.33,1.53 2.89,2.29 4.14,2.29 1.36,0 2.55,-1.01 2.55,-3.37 0,-1.44 -0.77,-4.99 -1.82,-7.02 -0.84,-1.7 -2.57,-3.37 -4.36,-3.37 h 0 l -0.03,-0.97 c 4.36,0 8.99,4.73 8.99,9.89 0,4.08 -2.81,5.81 -5.22,5.81 -1.81,0 -3.34,-1 -4.39,-1.91 z"
         id="path3199" /><path
         style="fill:#000000;stroke-width:0"
         inkscape:connector-curvature="0"
         d="m 517.29,409.87 0.02,0.09 0.03,0.1 0.02,0.1 0.03,0.1 0.03,0.1 0.02,0.11 0.06,0.22 0.05,0.22 0.06,0.22 0.05,0.22 0.03,0.11 0.02,0.1 0.03,0.11 0.02,0.1 0.02,0.09 0.02,0.1 0.02,0.09 0.02,0.09 0.02,0.08 0.02,0.07 0.01,0.07 0.02,0.07 0.01,0.06 0.01,0.05 0,0.04 0.01,0.04 0,0.01 0,0.02 0,0.01 0.01,0.01 c 0,0.69 -0.55,1.11 -1.15,1.11 -0.67,0 -1.29,-0.42 -1.5,-1.02 -0.1,-0.26 -0.45,-1.73 -0.7,-2.61 -0.48,-1.98 -0.48,-2.04 -1,-4 -0.45,-1.92 -0.53,-2.2 -0.56,-3.2 0.14,-0.7 -0.14,-1.36 -0.99,-2.41 -0.43,-0.56 -1.14,-1.15 -2.32,-1.15 -1.36,0 -3.14,0.48 -3.14,3.2 0,1.78 0.98,4.36 1.67,6.14 0.59,1.53 0.73,1.84 0.73,2.44 0,1.67 -1.42,2.95 -3.31,2.95 -3.52,0 -5.08,-4.73 -5.08,-5.33 0,-0.45 0.49,-0.45 0.6,-0.45 0.48,0 0.51,0.17 0.62,0.56 0.88,2.89 2.38,4.25 3.77,4.25 0.59,0 0.86,-0.39 0.86,-1.22 0,-0.79 -0.32,-1.56 -0.49,-2.01 -1.98,-5.1 -1.98,-5.8 -1.98,-6.88 0,-4.11 3.73,-4.62 5.61,-4.62 0.67,0 2.37,0 3.93,2.33 0.8,-1.57 2.72,-2.33 4.85,-2.33 3.11,0 4.64,2.67 5.33,4.11 1.5,2.92 2.43,7.28 2.43,8.89 0,2.61 -1.48,2.75 -1.73,2.75 -0.91,0 -1.88,-0.96 -1.88,-1.86 0,-0.58 0.35,-0.86 0.58,-1.08 0.85,-0.69 1.3,-1.67 1.3,-2.78 0,-0.45 -1.47,-9.06 -5.89,-9.06 -2.83,0 -2.83,2.51 -2.83,3.11 0,0.93 0.14,1.5 0.64,3.48 z"
         id="path3201" /></g>  </g>
  <line
     id="line175-3"
     y2="183.88239"
     y1="183.88239"
     x2="488.61615"
     x1="300.61615"
     style="stroke:#d8d8d8;stroke-width:2.5;stroke-linecap:square;stroke-opacity:0.7" />
  <line
     id="line175-3-6"
     y2="462.88239"
     y1="462.88239"
     x2="489.61615"
     x1="301.61615"
     style="stroke:#d8d8d8;stroke-width:2.5;stroke-linecap:square;stroke-opacity:0.7" />
  <polyline
     id="polyline185-5"
     points="570,350 570.0,350.0 778.0,350.0"
     transform="matrix(0,1.3377291,-0.97194719,0,763.52898,-578.9235)"
     style="fill:none;stroke:#000000;stroke-width:2.5;marker-start:url(#id15);marker-end:url(#id13)" />
  <g
     id="g4848"
     transform="matrix(4.6816919,0,0,4.6816919,246.37357,241.16735)">
    <g
       word-spacing="normal"
       letter-spacing="normal"
       font-size-adjust="none"
       font-stretch="normal"
       font-weight="normal"
       font-variant="normal"
       font-style="normal"
       stroke-miterlimit="10.433"
       xml:space="preserve"
       transform="matrix(0.14285714,0,0,-0.14285714,-25,75)"
       id="g4850"
       style="font-style:normal;font-variant:normal;font-weight:normal;font-stretch:normal;letter-spacing:normal;word-spacing:normal;text-anchor:start;fill:none;stroke:#000000;stroke-linecap:butt;stroke-linejoin:miter;stroke-miterlimit:10.43299961;stroke-opacity:1;stroke-dasharray:none;stroke-dashoffset:0"><path
         id="path4852"
         d="m 469.82,440.23 0,0 0,0.01 0,0 0,0.01 -0.01,0.02 0,0.01 0,0.02 0,0.02 0,0.02 -0.01,0.02 0,0.02 -0.01,0.02 -0.01,0.02 -0.01,0.03 -0.01,0.02 -0.01,0.03 -0.01,0.02 -0.02,0.03 -0.02,0.02 -0.02,0.02 -0.02,0.03 -0.01,0.01 -0.01,0.01 -0.02,0.01 -0.01,0.01 -0.02,0.01 -0.01,0.01 -0.02,0.01 -0.01,0.01 -0.02,0.01 -0.02,0.01 -0.02,0 -0.02,0.01 -0.02,0.01 -0.02,0 -0.02,0.01 -0.02,0.01 -0.03,0 -0.02,0 -0.03,0.01 -0.02,0 -0.03,0 -0.03,0.01 -0.02,0 -0.03,0 c -1.16,0 -4.79,-0.41 -6.08,-0.5 -0.41,-0.05 -0.96,-0.1 -0.96,-1 0,-0.6 0.46,-0.6 1.21,-0.6 2.39,0 2.48,-0.34 2.48,-0.84 l -0.15,-1 -7.22,-28.7 c -0.21,-0.69 -0.21,-0.8 -0.21,-1.1 0,-1.14 1,-1.39 1.46,-1.39 0.79,0 1.59,0.6 1.84,1.3 l 0.94,3.78 1.11,4.48 c 0.29,1.1 0.59,2.19 0.84,3.35 0.1,0.3 0.5,1.94 0.55,2.23 0.14,0.46 1.69,3.25 3.39,4.6 1.09,0.79 2.64,1.73 4.78,1.73 2.14,0 2.69,-1.69 2.69,-3.48 0,-2.69 -1.89,-8.13 -3.1,-11.16 -0.39,-1.16 -0.64,-1.75 -0.64,-2.75 0,-2.33 1.74,-4.08 4.08,-4.08 4.69,0 6.53,7.27 6.53,7.67 0,0.5 -0.45,0.5 -0.59,0.5 -0.5,0 -0.5,-0.15 -0.75,-0.9 -0.75,-2.64 -2.34,-6.17 -5.08,-6.17 -0.86,0 -1.2,0.5 -1.2,1.64 0,1.25 0.45,2.45 0.9,3.54 0.8,2.14 3.04,8.07 3.04,10.96 0,3.23 -2,5.32 -5.74,5.32 -3.14,0 -5.53,-1.53 -7.37,-3.82 z"
         inkscape:connector-curvature="0"
         style="fill:#000000;stroke-width:0" /><path
         id="path4854"
         d="m 486.81,394.51 -0.02,-0.09 -0.02,-0.08 -0.02,-0.09 -0.02,-0.07 -0.03,-0.08 -0.02,-0.07 -0.02,-0.07 -0.02,-0.06 -0.02,-0.06 -0.03,-0.05 -0.03,-0.06 -0.03,-0.05 -0.03,-0.04 -0.03,-0.05 -0.04,-0.04 -0.04,-0.03 -0.04,-0.04 -0.05,-0.03 -0.05,-0.03 -0.06,-0.02 -0.06,-0.03 -0.06,-0.02 -0.07,-0.01 -0.07,-0.02 -0.09,-0.02 -0.04,0 -0.04,-0.01 -0.05,0 -0.04,-0.01 -0.05,0 -0.05,0 -0.05,-0.01 -0.06,0 -0.05,0 -0.06,0 -0.06,-0.01 -0.06,0 -0.06,0 -0.06,0 c -0.46,0 -0.94,0 -0.94,-0.73 0,-0.39 0.31,-0.53 0.48,-0.53 0.91,0 2.06,0.14 3,0.14 1.19,0 2.5,-0.14 3.66,-0.14 0.31,0 0.7,0.11 0.7,0.76 0,0.5 -0.5,0.5 -0.9,0.5 -0.79,0 -1.72,0 -1.72,0.41 0,0.19 0.25,1.09 0.39,1.61 0.42,1.84 0.9,3.73 1.28,5.18 0.42,-0.68 1.5,-2.04 3.59,-2.04 v 0.97 c -2.47,0 -3.09,2.68 -3.09,3.03 0,0.14 0.06,0.39 0.09,0.53 l 1.75,7 c 2.02,2.69 3.77,3.2 4.88,3.2 1.36,0 2.54,-1.01 2.54,-3.37 0,-1.44 -0.76,-4.99 -1.81,-7.02 -0.87,-1.7 -2.58,-3.37 -4.36,-3.37 v -0.97 c 4.25,0 8.96,4.7 8.96,9.89 0,4.08 -2.83,5.81 -5.22,5.81 -2.18,0 -4.02,-1.45 -4.96,-2.44 -0.59,1.99 -2.54,2.44 -3.59,2.44 -1.36,0 -2.19,-0.91 -2.75,-1.84 -0.7,-1.19 -1.25,-3.27 -1.25,-3.49 0,-0.45 0.48,-0.45 0.59,-0.45 0.49,0 0.52,0.11 0.77,1.05 0.51,2.03 1.19,3.76 2.55,3.76 0.9,0 1.14,-0.76 1.14,-1.7 0,-0.39 -0.07,-0.84 -0.11,-1.05 z"
         inkscape:connector-curvature="0"
         style="fill:#000000;stroke-width:0" /></g>  </g>
</svg>
